<svg width="305" height="93" viewBox="0 0 305 93" fill="none" xmlns="http://www.w3.org/2000/svg">
<path d="M38.1875 68.002C38.1875 65.2676 39.1152 62.9727 40.9707 61.1172C42.9238 59.1641 45.2676 58.1875 48.002 58.1875H70.4141L66.6055 47.3477C65.043 43.3438 63.4805 39.584 61.918 36.0684C60.4531 32.4551 58.7441 29.1836 56.791 26.2539C55.0332 23.3242 53.0312 21.7617 50.7852 21.5664C48.4414 21.7617 46.3418 23.3242 44.4863 26.2539C42.6309 29.1836 40.9219 32.4551 39.3594 36.0684C37.8945 39.584 36.3809 43.3438 34.8184 47.3477L20.9023 85.4336C19.9258 87.4844 18.6562 89.1934 17.0938 90.5605C15.6289 91.8301 13.3828 92.4648 10.3555 92.4648C7.52344 92.4648 5.17969 91.4883 3.32422 89.5352C1.56641 87.582 0.785156 85.2383 0.980469 82.5039C1.07812 81.2344 1.37109 80.0625 1.85938 78.9883L17.9727 37.3867C22.4648 26.4492 26.957 17.6113 31.4492 10.873C35.8438 4.23242 42.2891 0.863281 50.7852 0.765625C59.1836 0.863281 65.5801 4.23242 69.9746 10.873C74.4668 17.416 78.959 26.2539 83.4512 37.3867L99.5645 78.9883C100.053 80.0625 100.346 81.2344 100.443 82.5039C100.639 85.2383 99.8086 87.582 97.9531 89.5352C96.1953 91.4883 93.9004 92.4648 91.0684 92.4648C87.8457 92.4648 85.4531 91.8301 83.8906 90.5605C82.4258 89.1934 81.2051 87.4844 80.2285 85.4336L77.4453 77.8164H48.002C45.2676 77.8164 42.9727 76.8398 41.1172 74.8867C39.1641 73.0312 38.1875 70.7363 38.1875 68.002ZM115.906 1.9375C118.641 1.9375 120.984 2.86523 122.938 4.7207C124.891 6.47852 125.916 8.72461 126.014 11.459V46.7617C125.916 50.7656 126.16 54.4766 126.746 57.8945C127.43 61.2148 128.992 64.1934 131.434 66.8301C133.875 69.4668 136.951 70.8828 140.662 71.0781H187.537C190.271 71.1758 192.518 72.2012 194.275 74.1543C196.131 76.1074 197.059 78.4512 197.059 81.1855C196.961 83.8223 195.984 86.0684 194.129 87.9238C192.371 89.6816 190.174 90.6094 187.537 90.707H135.682C128.846 90.3164 123.182 88.0215 118.689 83.8223C114.295 79.5254 111.121 74.3008 109.168 68.1484C107.312 61.9961 106.336 55.4531 106.238 48.5195V11.459C106.336 8.82227 107.312 6.625 109.168 4.86719C111.023 3.01172 113.27 2.03516 115.906 1.9375ZM199.191 14.0957C199.191 11.3613 200.119 9.06641 201.975 7.21094C203.928 5.25781 206.271 4.28125 209.006 4.28125H294.26C296.994 4.28125 299.338 5.20898 301.291 7.06445C303.146 9.01758 304.074 11.3613 304.074 14.0957C304.074 16.8301 303.098 19.1738 301.145 21.127C299.289 22.9824 296.994 23.9102 294.26 23.9102H261.594V83.2363C261.008 89.0957 257.785 92.2695 251.926 92.7578C249.191 92.7578 246.799 91.8789 244.748 90.1211C242.795 88.2656 241.818 85.9707 241.818 83.2363V23.9102H209.006C206.271 23.9102 203.977 22.9336 202.121 20.9805C200.168 19.125 199.191 16.8301 199.191 14.0957Z" fill="#0022FF"/>
</svg>
