<svg width="206" height="97" viewBox="0 0 206 97" fill="none" xmlns="http://www.w3.org/2000/svg">
<path d="M51.032 95L50.52 79V48.92C50.52 43.8853 48.856 39.96 45.528 37.144C42.2853 34.2427 37.8053 32.792 32.088 32.792C26.5413 32.792 22.0187 34.072 18.52 36.632C15.0213 39.1067 13.1013 42.5627 12.76 47H0.0880003C0.514667 41.9653 2.136 37.6987 4.952 34.2C7.768 30.616 11.5227 27.8853 16.216 26.008C20.9093 24.0453 26.328 23.064 32.472 23.064C38.7867 23.064 44.248 24.1307 48.856 26.264C53.464 28.312 57.0053 31.2987 59.48 35.224C62.04 39.1493 63.32 43.928 63.32 49.56V95H51.032ZM25.56 96.536C20.952 96.536 16.8987 95.7253 13.4 94.104C9.90133 92.3973 7.17067 90.008 5.208 86.936C3.24533 83.7787 2.264 80.1093 2.264 75.928C2.264 68.6747 5.03733 63.0427 10.584 59.032C16.216 55.0213 24.0667 53.016 34.136 53.016H52.184V62.616H33.624C27.8213 62.616 23.256 63.7253 19.928 65.944C16.6853 68.1627 15.064 71.2773 15.064 75.288C15.064 78.616 16.216 81.2187 18.52 83.096C20.9093 84.9733 24.1093 85.912 28.12 85.912C33.24 85.912 37.7627 84.5467 41.688 81.816C45.6987 79 48.9413 75.16 51.416 70.296L52.824 79.768C50.6053 85.144 47.192 89.2827 42.584 92.184C37.976 95.0853 32.3013 96.536 25.56 96.536ZM96.65 95V0.919998H109.578V95H96.65ZM70.666 95V84.504H135.69V95H70.666ZM80.01 11.416V0.919998H103.05V11.416H80.01ZM179.26 95C174.908 95 171.196 94.1467 168.124 92.44C165.052 90.648 162.748 88.1307 161.212 84.888C159.676 81.6453 158.908 77.848 158.908 73.496V11.288L171.836 4.24799V73.496C171.836 75.544 172.135 77.4213 172.732 79.128C173.329 80.8347 174.481 82.1573 176.188 83.096C177.98 84.0347 180.583 84.504 183.996 84.504H205.116V95H179.26ZM142.268 35.096V24.6H193.852V35.096H142.268Z" fill="#0022FF"/>
</svg>
