<svg width="175" height="107" viewBox="0 0 175 107" fill="none" xmlns="http://www.w3.org/2000/svg">
<path d="M33 72.1H37.06V61.32C37.06 52.4533 36.5467 46.5267 35.52 43.54C34.5867 40.46 32.72 38.92 29.92 38.92C28.24 38.92 26.7 39.3867 25.3 40.32C23.9933 41.16 23.34 42.3733 23.34 43.96C23.34 45.4533 23.62 46.9933 24.18 48.58H27.68C28.4267 50.54 28.8 52.92 28.8 55.72C28.8 58.4267 27.6333 60.8067 25.3 62.86C22.9667 64.82 20.0267 65.8 16.48 65.8C8.45333 65.8 4.44 61.9267 4.44 54.18C4.44 42.7 14.1933 36.96 33.7 36.96C44.8067 36.96 52.46 38.8733 56.66 42.7C60.9533 46.4333 63.1 53.34 63.1 63.42V91.84C63.1 96.6933 64.4533 99.12 67.16 99.12C70.3333 99.12 72.2 94.3133 72.76 84.7L74.86 84.84C74.4867 93.0533 72.9467 98.7 70.24 101.78C67.5333 104.86 63.1 106.4 56.94 106.4C45.74 106.4 39.3 102.947 37.62 96.04C36.4067 99.5867 34.5867 102.2 32.16 103.88C29.7333 105.56 26.1867 106.4 21.52 106.4C7.70667 106.4 0.8 100.753 0.8 89.46C0.8 82.8333 3.41333 78.3067 8.64 75.88C13.96 73.36 22.08 72.1 33 72.1ZM27.4 89.32C27.4 94.1733 27.6333 97.3 28.1 98.7C28.66 100.1 29.64 100.8 31.04 100.8C32.5333 100.8 33.8867 99.6333 35.1 97.3C36.4067 94.8733 37.06 91.56 37.06 87.36V74.34H36.08C30.2933 74.34 27.4 78.5867 27.4 87.08V89.32ZM75.6759 -8.34465e-06H109.976V102.48H117.816V105H76.2359V102.48H83.9359V2.51999H75.6759V-8.34465e-06ZM127.533 84.98V40.88H119.833V38.36H127.533V20.3L153.573 13.86V38.36H171.773V40.88H153.573V88.06C153.573 92.4467 153.993 95.6667 154.833 97.72C155.766 99.7733 157.633 100.8 160.433 100.8C163.233 100.8 165.659 99.4 167.713 96.6C169.859 93.8 171.259 89.9733 171.913 85.12L174.293 85.4C173.546 91.84 171.493 96.9733 168.133 100.8C164.773 104.533 159.219 106.4 151.473 106.4C143.726 106.4 137.799 104.86 133.693 101.78C129.586 98.7 127.533 93.1 127.533 84.98Z" fill="#0022FF"/>
</svg>
