<svg width="236" height="126" viewBox="0 0 236 126" fill="none" xmlns="http://www.w3.org/2000/svg">
<path d="M11.92 120.328C8.67733 120.328 5.98933 118.835 3.856 115.848C1.808 112.776 0.784 108.808 0.784 103.944C0.784 99.4213 1.89333 94.9413 4.112 90.504C6.416 86.0667 9.44533 81.8 13.2 77.704C16.9547 73.608 21.0507 69.8533 25.488 66.44C29.9253 62.9413 34.3627 59.912 38.8 57.352C43.3227 54.792 47.4613 52.7867 51.216 51.336C54.9707 49.8853 57.9573 49.16 60.176 49.16C61.3707 49.16 62.352 49.416 63.12 49.928C63.888 50.3547 64.272 51.1653 64.272 52.36C64.272 53.128 63.9733 53.8533 63.376 54.536C63.4613 54.536 63.5467 54.536 63.632 54.536C65.5093 54.536 66.448 55.6453 66.448 57.864C66.448 58.632 66.1493 60.2107 65.552 62.6C64.9547 64.904 64.272 67.8053 63.504 71.304C62.736 74.8027 62.0533 78.6853 61.456 82.952C60.8587 87.1333 60.56 91.4 60.56 95.752C60.56 99.4213 61.968 101.256 64.784 101.256C67.9413 101.256 71.1413 100.531 74.384 99.08C77.6267 97.6293 80.784 95.88 83.856 93.832C86.928 91.6987 89.744 89.608 92.304 87.56C94.864 85.4267 97.04 83.6347 98.832 82.184C100.624 80.7333 101.904 80.008 102.672 80.008C103.355 80.008 103.952 80.2213 104.464 80.648C104.976 81.0747 105.232 81.7573 105.232 82.696C105.232 83.5493 104.379 85.0853 102.672 87.304C100.965 89.5227 98.704 92.04 95.888 94.856C93.072 97.672 89.9147 100.403 86.416 103.048C82.9173 105.693 79.3333 107.869 75.664 109.576C71.9947 111.283 68.496 112.136 65.168 112.136C62.608 112.136 60.2613 111.368 58.128 109.832C56.08 108.211 54.416 105.48 53.136 101.64C51.9413 97.8 51.344 92.5093 51.344 85.768V82.568C47.1627 89.48 42.768 95.7947 38.16 101.512C33.6373 107.229 29.1147 111.795 24.592 115.208C20.1547 118.621 15.9307 120.328 11.92 120.328ZM57.744 58.376C57.3173 58.5467 56.72 58.8027 55.952 59.144C52.0267 60.936 47.9307 63.1547 43.664 65.8C39.4827 68.4453 35.3867 71.3893 31.376 74.632C27.4507 77.8747 23.9093 81.2453 20.752 84.744C17.5947 88.2427 15.0773 91.784 13.2 95.368C11.3227 98.952 10.384 102.451 10.384 105.864C10.384 106.973 10.5973 107.827 11.024 108.424C11.536 109.021 12.3893 109.32 13.584 109.32C15.2907 109.32 17.5093 108.253 20.24 106.12C22.9707 103.901 25.9573 101 29.2 97.416C32.528 93.832 35.856 89.864 39.184 85.512C42.512 81.16 45.6693 76.7653 48.656 72.328C51.728 67.8907 54.3733 63.7947 56.592 60.04C56.9333 59.4427 57.3173 58.888 57.744 58.376ZM120.646 122.12C114.075 122.12 108.913 119.987 105.158 115.72C101.489 111.368 99.654 105.309 99.654 97.544C99.654 92.7653 100.294 87.176 101.574 80.776C102.939 74.2907 104.646 67.464 106.694 60.296C108.827 53.0427 111.131 45.8747 113.606 38.792C116.081 31.7093 118.47 25.1387 120.774 19.08C123.163 12.936 125.254 7.816 127.046 3.71999C128.07 1.41599 129.521 0.263992 131.398 0.263992C133.958 0.263992 135.238 1.84266 135.238 4.99999C135.238 6.02399 134.769 8.11466 133.83 11.272C132.891 14.4293 131.654 18.3547 130.118 23.048C128.582 27.656 126.918 32.776 125.126 38.408C123.334 44.04 121.499 49.8427 119.622 55.816C117.83 61.704 116.166 67.5493 114.63 73.352C113.094 79.0693 111.857 84.4453 110.918 89.48C109.979 94.5147 109.51 98.824 109.51 102.408C109.51 104.712 110.107 106.547 111.302 107.912C112.582 109.192 114.289 109.832 116.422 109.832C120.347 109.832 124.273 109.064 128.198 107.528C132.209 105.907 136.049 103.944 139.718 101.64C143.387 99.2507 146.715 96.904 149.702 94.6C152.774 92.2107 155.377 90.248 157.51 88.712C159.643 87.0907 161.137 86.28 161.99 86.28C163.867 86.28 164.806 87.304 164.806 89.352C164.806 90.0347 164.123 91.3147 162.758 93.192C161.393 94.984 159.558 97.1173 157.254 99.592C154.95 102.067 152.262 104.627 149.19 107.272C146.203 109.832 143.046 112.264 139.718 114.568C136.475 116.787 133.19 118.579 129.862 119.944C126.619 121.395 123.547 122.12 120.646 122.12ZM149.324 76.04C147.02 75.8693 145.953 74.376 146.124 71.56C146.209 70.8773 146.679 70.0667 147.532 69.128C148.385 68.104 149.367 67.5493 150.476 67.464C153.121 67.208 156.364 66.824 160.204 66.312C164.129 65.7147 168.439 65.032 173.132 64.264C173.985 60.0827 175.009 55.688 176.204 51.08C177.399 46.472 178.721 41.992 180.172 37.64C181.623 33.2027 183.159 29.192 184.78 25.608C186.401 22.024 188.108 19.208 189.9 17.16C190.839 16.2213 191.692 15.5813 192.46 15.24C193.228 14.8133 193.911 14.6 194.508 14.6C195.703 14.6 196.641 15.112 197.324 16.136C198.092 17.16 198.476 18.312 198.476 19.592C198.476 20.2747 198.348 20.9573 198.092 21.64C196.385 26.4187 194.551 32.3067 192.588 39.304C190.625 46.3013 188.535 53.9387 186.316 62.216C194.167 60.936 202.017 59.5707 209.868 58.12C217.719 56.6693 224.46 55.3467 230.092 54.152C231.713 53.4693 232.951 53.5973 233.804 54.536C234.743 55.4747 235.212 56.4133 235.212 57.352C235.212 58.5467 234.871 59.4427 234.188 60.04C233.591 60.6373 232.951 61.1493 232.268 61.576L232.14 61.704C230.433 62.3867 227.873 63.1973 224.46 64.136C221.047 64.9893 217.121 65.928 212.684 66.952C208.247 67.8907 203.511 68.8293 198.476 69.768C193.527 70.7067 188.62 71.56 183.756 72.328C181.793 79.8373 179.788 87.56 177.74 95.496C175.777 103.347 173.815 111.069 171.852 118.664C170.999 121.736 170.017 123.656 168.908 124.424C167.884 125.277 166.775 125.704 165.58 125.704C164.215 125.704 163.02 125.192 161.996 124.168C161.057 123.144 160.929 121.053 161.612 117.896L170.956 74.248C165.836 75.016 161.313 75.5707 157.388 75.912C153.548 76.2533 150.86 76.296 149.324 76.04Z" fill="#0022FF"/>
</svg>
