<svg width="195" height="133" viewBox="0 0 195 133" fill="none" xmlns="http://www.w3.org/2000/svg">
<path d="M11.7 132.14C8.15333 132.14 5.43 130.81 3.53 128.15C1.63 125.363 0.680001 121.817 0.680001 117.51C0.680001 112.823 1.94667 107.377 4.48 101.17C5.87333 97.75 7.96333 94.2667 10.75 90.72C13.5367 87.0467 16.7667 83.69 20.44 80.65C24.1133 77.4833 28.04 74.95 32.22 73.05C36.5267 71.0233 40.8967 70.01 45.33 70.01C48.75 70.01 51.0933 70.8967 52.36 72.67C53.6267 74.4433 54.26 76.5967 54.26 79.13C54.26 81.5367 53.88 84.0067 53.12 86.54L63.76 70.39C64.6467 69.7567 66.61 69.44 69.65 69.44C71.93 69.44 74.0833 69.6933 76.11 70.2C78.2633 70.7067 78.8967 71.4667 78.01 72.48C76.9967 73.7467 75.2233 75.71 72.69 78.37C70.2833 80.9033 67.6233 83.9433 64.71 87.49C61.9233 91.0367 59.2633 94.7733 56.73 98.7C55.4633 100.853 53.5633 104.02 51.03 108.2C48.6233 112.38 46.7233 116.37 45.33 120.17C44.57 122.45 44.19 124.287 44.19 125.68C44.19 128.34 45.33 129.67 47.61 129.67C48.8767 129.67 50.5867 129.227 52.74 128.34C54.8933 127.327 56.9833 125.997 59.01 124.35C63.0633 121.057 66.61 117.13 69.65 112.57C72.69 107.883 75.4133 103.767 77.82 100.22C77.9467 100.093 78.0733 99.9667 78.2 99.84C78.4533 99.7133 78.8333 99.65 79.34 99.65C79.8467 99.65 80.2267 99.9033 80.48 100.41C80.7333 100.79 80.6067 101.297 80.1 101.93C76.5533 107.25 73.07 112.253 69.65 116.94C66.23 121.5 62.7467 125.173 59.2 127.96C55.6533 130.747 51.79 132.14 47.61 132.14C44.3167 132.14 41.6567 131.19 39.63 129.29C37.73 127.263 36.78 124.54 36.78 121.12C36.78 119.6 36.9067 118.017 37.16 116.37C37.54 114.723 37.9833 113.203 38.49 111.81C36.4633 114.47 33.93 117.383 30.89 120.55C27.9767 123.717 24.8733 126.44 21.58 128.72C18.2867 131 14.9933 132.14 11.7 132.14ZM13.41 128.53C15.9433 128.53 18.6033 127.517 21.39 125.49C24.3033 123.463 27.2167 120.867 30.13 117.7C33.0433 114.407 35.7033 110.923 38.11 107.25C40.1367 104.21 42.1 100.98 44 97.56C46.0267 94.14 47.6733 90.7833 48.94 87.49C50.3333 84.1967 51.03 81.22 51.03 78.56C51.03 74.5067 49.5733 72.48 46.66 72.48C44.6333 72.48 42.29 73.3667 39.63 75.14C36.97 76.9133 34.2467 79.1933 31.46 81.98C28.8 84.7667 26.2667 87.8067 23.86 91.1C21.58 94.2667 19.7433 97.37 18.35 100.41C17.97 101.17 17.02 103.007 15.5 105.92C14.1067 108.833 12.7133 112 11.32 115.42C10.0533 118.84 9.42 121.817 9.42 124.35C9.42 127.137 10.75 128.53 13.41 128.53ZM97.1822 132.71C96.6755 132.71 96.1055 132.647 95.4722 132.52C94.8389 132.52 94.2055 132.457 93.5722 132.33C89.8989 131.443 87.2389 129.797 85.5922 127.39C84.0722 124.857 83.3122 121.817 83.3122 118.27C83.3122 115.483 83.6922 112.507 84.4522 109.34C85.3389 106.047 86.4155 102.627 87.6822 99.08C89.8355 93.5067 92.4955 87.3633 95.6622 80.65C98.9555 73.81 102.629 66.8433 106.682 59.75C110.862 52.53 115.232 45.5633 119.792 38.85C124.479 32.1367 129.292 26.0567 134.232 20.61C137.146 17.3167 140.059 14.34 142.972 11.68C146.012 9.01999 148.989 6.86666 151.902 5.21999C156.842 2.17999 161.402 0.659991 165.582 0.659991C168.116 0.659991 170.079 1.29332 171.472 2.55999C172.992 3.69999 173.752 5.53666 173.752 8.07C173.752 9.71667 173.372 11.6167 172.612 13.77C171.979 15.7967 170.839 18.14 169.192 20.8C166.026 26.12 161.909 31.6933 156.842 37.52C151.902 43.3467 146.519 49.0467 140.692 54.62C134.866 60.0667 128.976 65.07 123.022 69.63C117.196 74.19 111.686 77.9267 106.492 80.84C103.959 85.4 101.552 90.2767 99.2722 95.47C96.9922 100.537 95.1555 105.413 93.7622 110.1C92.3689 114.66 91.6722 118.587 91.6722 121.88C91.6722 124.413 92.1789 126.44 93.1922 127.96C94.2055 129.48 95.7889 130.24 97.9422 130.24C100.729 130.24 103.959 128.973 107.632 126.44C111.306 123.907 115.106 120.487 119.032 116.18C123.086 111.747 126.886 106.617 130.432 100.79C131.066 100.03 131.699 99.65 132.332 99.65C132.712 99.65 132.966 99.9033 133.092 100.41C133.346 100.917 133.346 101.423 133.092 101.93C126.886 111.43 120.806 118.967 114.852 124.54C109.026 129.987 103.136 132.71 97.1822 132.71ZM107.822 77.23C111.876 74.95 116.562 71.4667 121.882 66.78C127.329 62.0933 132.839 56.9 138.412 51.2C143.986 45.3733 149.116 39.61 153.802 33.91C158.616 28.21 162.352 23.2067 165.012 18.9C166.406 16.62 167.419 14.6567 168.052 13.01C168.686 11.3633 169.002 9.97 169.002 8.83C169.002 6.55 167.989 5.41 165.962 5.41C163.302 5.41 159.756 7.24666 155.322 10.92C152.156 13.58 149.179 16.5567 146.392 19.85C143.606 23.0167 141.642 25.36 140.502 26.88C134.676 34.6067 129.039 43.03 123.592 52.15C118.146 61.1433 112.889 69.5033 107.822 77.23ZM146.87 132.33C143.197 132.33 139.903 131.317 136.99 129.29C134.203 127.137 132.81 124.033 132.81 119.98C132.81 117.827 132.937 115.927 133.19 114.28C133.443 112.507 134.013 110.67 134.9 108.77C135.913 106.743 137.37 104.21 139.27 101.17C141.297 98.13 144.02 94.2667 147.44 89.58L161.31 70.01H151.05L152.57 67.16H163.4L178.6 45.31C181.387 43.2833 184.743 42.27 188.67 42.27C190.57 42.27 192.47 42.5867 194.37 43.22L176.32 66.97H189.81L188.29 69.82H174.23L158.46 91.86C157.7 92.8733 156.433 94.6467 154.66 97.18C152.887 99.5867 150.987 102.373 148.96 105.54C147.06 108.707 145.413 111.873 144.02 115.04C142.627 118.08 141.93 120.867 141.93 123.4C141.93 127.58 143.957 129.67 148.01 129.67C150.163 129.67 152.57 129.037 155.23 127.77C161.057 125.237 165.997 121.627 170.05 116.94C174.23 112.127 178.22 106.743 182.02 100.79C182.4 100.283 182.97 100.03 183.73 100.03C184.11 100.03 184.427 100.22 184.68 100.6C184.933 100.98 184.933 101.423 184.68 101.93C182.4 105.477 179.867 109.15 177.08 112.95C174.293 116.75 171.127 120.233 167.58 123.4C164.16 126.567 160.297 128.973 155.99 130.62C153.203 131.76 150.163 132.33 146.87 132.33Z" fill="#0022FF"/>
</svg>
