<svg width="152" height="44" viewBox="0 0 152 44" fill="none" xmlns="http://www.w3.org/2000/svg">
<path d="M65.4121 33.0879C65.334 33.0098 65.2949 32.8633 65.2949 32.6484C65.2949 32.375 65.334 32.2383 65.4121 32.2383C65.6465 32.2383 65.9492 32.1895 66.3203 32.0918C66.6914 31.9941 66.9453 31.8574 67.082 31.6816C67.2969 31.4082 67.5117 31.0469 67.7266 30.5977C67.9609 30.1484 68.2051 29.5918 68.459 28.9277L73.5566 15.832C73.6738 15.5391 73.7422 15.334 73.7617 15.2168C73.8008 15.0996 73.8301 15.002 73.8496 14.9238C73.8887 14.8262 73.957 14.6699 74.0547 14.4551C74.1914 14.1816 74.3281 13.9668 74.4648 13.8105C74.6016 13.6543 74.8262 13.5762 75.1387 13.5762L75.4023 13.6641L81.2617 29.1328C81.4375 29.582 81.5938 29.9824 81.7305 30.334C81.8867 30.6855 82.0137 30.9883 82.1113 31.2422C82.1895 31.4375 82.3555 31.6133 82.6094 31.7695C82.8828 31.9062 83.1562 32.0234 83.4297 32.1211C83.7227 32.1992 83.9473 32.2383 84.1035 32.2383C84.1816 32.2383 84.2207 32.4238 84.2207 32.7949C84.2207 32.834 84.2109 32.8828 84.1914 32.9414C84.1914 32.9805 84.1816 33.0293 84.1621 33.0879C83.1855 33.0488 82.4238 33.0195 81.877 33C81.3496 32.9609 81.0371 32.9414 80.9395 32.9414L77.541 33.0879C77.4629 33.0098 77.4238 32.8535 77.4238 32.6191C77.4434 32.3652 77.4922 32.2383 77.5703 32.2383C77.8047 32.2383 78.0977 32.1895 78.4492 32.0918C78.8008 31.9941 79.0059 31.8672 79.0645 31.7109C79.084 31.6328 79.0938 31.5547 79.0938 31.4766C79.1133 31.3984 79.123 31.3203 79.123 31.2422C79.123 30.9883 79.0938 30.6953 79.0352 30.3633C78.9766 30.0117 78.9082 29.7383 78.8301 29.543L77.5117 25.9102C77.4531 25.832 77.3945 25.793 77.3359 25.793C76.5742 25.7344 75.832 25.7051 75.1094 25.7051C74.6016 25.7051 74.0352 25.7246 73.4102 25.7637C72.8047 25.7832 72.1309 25.8125 71.3887 25.8516L71.2422 25.9395L69.9824 29.1621C69.7871 29.6504 69.6504 30.0605 69.5723 30.3926C69.5137 30.7246 69.4844 30.9883 69.4844 31.1836C69.4844 31.457 69.5625 31.6523 69.7188 31.7695C69.8945 31.9062 70.1777 32.0234 70.5684 32.1211C70.959 32.1992 71.2422 32.2383 71.418 32.2383C71.4766 32.2383 71.5059 32.3555 71.5059 32.5898C71.5254 32.8242 71.5156 32.9902 71.4766 33.0879L68.459 32.9414C67.9121 32.9023 67.375 32.9121 66.8477 32.9707C66.3398 33.0098 65.8613 33.0488 65.4121 33.0879ZM74.084 24.2988C74.9629 24.2988 75.8516 24.2695 76.75 24.2109L76.8379 24.0645L74.4648 17.5898L71.9453 24.123C71.9453 24.2012 71.9648 24.2402 72.0039 24.2402C72.5117 24.2598 72.9316 24.2793 73.2637 24.2988C73.6152 24.2988 73.8887 24.2988 74.084 24.2988ZM103.498 33.1465C100.783 33.1465 98.4102 31.7402 96.3789 28.9277C96.2227 28.7129 96.0176 28.4199 95.7637 28.0488C95.5293 27.6777 95.0898 27.0234 94.4453 26.0859C94.1328 25.6367 93.8496 25.2656 93.5957 24.9727C93.3613 24.6602 93.0781 24.4258 92.7461 24.2695C92.4336 24.1133 92.0039 24.0352 91.457 24.0352C91.2422 24.0352 91.0664 24.0645 90.9297 24.123C90.8125 24.1816 90.7539 24.3184 90.7539 24.5332V28.8398C90.7539 30.1289 90.832 30.9785 90.9883 31.3887C91.0664 31.5449 91.252 31.6914 91.5449 31.8281C91.8574 31.9648 92.1895 32.0723 92.541 32.1504C92.8926 32.209 93.1465 32.2383 93.3027 32.2383C93.3809 32.2383 93.4199 32.375 93.4199 32.6484C93.4199 32.7852 93.4004 32.9316 93.3613 33.0879C92.3848 33.0488 91.5742 33.0098 90.9297 32.9707C90.3047 32.9316 89.8457 32.9219 89.5527 32.9414L85.9785 33.0879C85.9199 33.0293 85.8906 32.8535 85.8906 32.5605C85.8906 32.3066 85.9199 32.1797 85.9785 32.1797C86.1738 32.1797 86.4082 32.1504 86.6816 32.0918C86.9746 32.0332 87.248 31.9648 87.502 31.8867C87.7754 31.7891 87.9414 31.6816 88 31.5645C88.1367 31.3496 88.2051 30.4316 88.2051 28.8105V17.7363C88.2051 17.1699 88.1855 16.6719 88.1465 16.2422C88.127 15.8125 88.0781 15.4707 88 15.2168C87.9609 15.0996 87.8047 14.9922 87.5312 14.8945C87.2773 14.7969 86.9941 14.7188 86.6816 14.6602C86.3887 14.6016 86.1543 14.5723 85.9785 14.5723C85.9004 14.5723 85.8613 14.4551 85.8613 14.2207C85.8613 13.9668 85.9004 13.8008 85.9785 13.7227L89.4941 13.7812C90.0605 13.8008 90.7539 13.791 91.5742 13.752C92.3945 13.6934 93.0781 13.6641 93.625 13.6641C94.6797 13.6641 95.6855 13.8691 96.6426 14.2793C97.6191 14.6895 98.4102 15.2949 99.0156 16.0957C99.6406 16.8965 99.9531 17.873 99.9531 19.0254C99.9531 19.8457 99.6406 20.7051 99.0156 21.6035C98.4102 22.502 97.5801 23.1953 96.5254 23.6836C96.3301 23.7617 96.2715 23.8594 96.3496 23.9766C97.3066 26.0078 98.4297 27.7266 99.7188 29.1328C101.594 31.1836 103.117 32.209 104.289 32.209C104.348 32.3262 104.377 32.4629 104.377 32.6191C104.377 32.7949 104.348 32.9414 104.289 33.0586C104.094 33.1172 103.83 33.1465 103.498 33.1465ZM93.3027 22.7754H94.0352C94.5039 22.7754 94.9824 22.6191 95.4707 22.3066C95.9785 21.9941 96.3984 21.5547 96.7305 20.9883C97.082 20.4219 97.2578 19.7676 97.2578 19.0254C97.2578 16.3105 95.8906 14.9531 93.1562 14.9531C92.2578 14.9531 91.5742 15.0215 91.1055 15.1582C90.9297 15.1973 90.8223 15.5195 90.7832 16.125C90.7637 16.7109 90.7539 17.4629 90.7539 18.3809V21.9258C90.7539 22.4922 91.6035 22.7754 93.3027 22.7754ZM105.402 33.0879C105.324 33.0098 105.285 32.8633 105.285 32.6484C105.285 32.375 105.324 32.2383 105.402 32.2383C105.578 32.2383 105.812 32.2188 106.105 32.1797C106.398 32.1211 106.672 32.043 106.926 31.9453C107.18 31.8477 107.326 31.75 107.365 31.6523C107.443 31.3789 107.492 31.0273 107.512 30.5977C107.551 30.168 107.57 29.6504 107.57 29.0449V17.6777C107.57 17.0723 107.551 16.5547 107.512 16.125C107.492 15.6758 107.443 15.3242 107.365 15.0703C107.326 14.9531 107.18 14.8555 106.926 14.7773C106.672 14.6797 106.398 14.6016 106.105 14.543C105.812 14.4844 105.578 14.4551 105.402 14.4551C105.324 14.4551 105.285 14.3281 105.285 14.0742C105.285 13.8398 105.324 13.6836 105.402 13.6055C105.578 13.6055 105.871 13.625 106.281 13.6641C106.711 13.6836 107.17 13.7129 107.658 13.752C108.146 13.7715 108.566 13.7812 108.918 13.7812C109.543 13.7812 110.168 13.7617 110.793 13.7227C111.418 13.6641 111.926 13.625 112.316 13.6055C112.355 13.6836 112.365 13.8496 112.346 14.1035C112.346 14.3379 112.316 14.4551 112.258 14.4551C112.141 14.4551 111.936 14.4941 111.643 14.5723C111.35 14.6309 111.076 14.709 110.822 14.8066C110.568 14.8848 110.422 14.9727 110.383 15.0703C110.207 15.7344 110.119 16.6426 110.119 17.7949V22.5703L110.324 22.7461H110.529C111.154 22.7461 111.721 22.4629 112.229 21.8965C113.381 20.627 114.367 19.4941 115.188 18.498C116.027 17.502 116.721 16.6523 117.268 15.9492C117.736 15.3828 117.971 15.0117 117.971 14.8359C117.971 14.5039 117.414 14.3379 116.301 14.3379C116.223 14.3379 116.184 14.25 116.184 14.0742C116.184 13.9766 116.184 13.8984 116.184 13.8398C116.203 13.7617 116.223 13.6836 116.242 13.6055C116.809 13.6445 117.375 13.6836 117.941 13.7227C118.508 13.7617 118.986 13.7812 119.377 13.7812C119.709 13.7812 120.07 13.7715 120.461 13.752C120.871 13.7129 121.242 13.6836 121.574 13.6641C121.926 13.625 122.18 13.6055 122.336 13.6055C122.375 13.6836 122.385 13.8301 122.365 14.0449C122.365 14.2402 122.336 14.3379 122.277 14.3379C121.105 14.4746 120.207 14.8848 119.582 15.5684L113.693 22.4238C113.537 22.5996 113.605 22.8633 113.898 23.2148L120.959 30.9785C121.35 31.3887 121.848 31.7012 122.453 31.916C123.059 32.1309 123.596 32.2383 124.064 32.2383C124.162 32.2383 124.211 32.4141 124.211 32.7656C124.211 32.8633 124.191 32.9707 124.152 33.0879C123.176 33.0488 122.385 33.0195 121.779 33C121.174 32.9609 120.754 32.9414 120.52 32.9414C119.699 32.9414 118.957 32.9609 118.293 33C117.648 33.0195 117.072 33.0488 116.564 33.0879C116.486 33.0098 116.447 32.8438 116.447 32.5898C116.447 32.3555 116.486 32.2383 116.564 32.2383C116.799 32.2383 117.062 32.1992 117.355 32.1211C117.668 32.043 117.824 31.9258 117.824 31.7695C117.824 31.1445 115.607 28.5566 111.174 24.0059C111.096 23.9277 110.812 23.8887 110.324 23.8887C110.188 23.8887 110.119 23.9668 110.119 24.123V28.9277C110.119 30.0605 110.207 30.9688 110.383 31.6523C110.422 31.7305 110.568 31.8184 110.822 31.916C111.076 32.0137 111.35 32.0918 111.643 32.1504C111.936 32.209 112.141 32.2383 112.258 32.2383C112.316 32.2383 112.346 32.3555 112.346 32.5898C112.365 32.8242 112.355 32.9902 112.316 33.0879C111.34 33.0488 110.568 33.0195 110.002 33C109.436 32.9609 109.074 32.9414 108.918 32.9414L105.402 33.0879ZM125.617 33.0879C125.539 33.0098 125.5 32.8633 125.5 32.6484C125.5 32.375 125.539 32.2383 125.617 32.2383C125.793 32.2383 126.027 32.2188 126.32 32.1797C126.613 32.1211 126.887 32.043 127.141 31.9453C127.395 31.8477 127.541 31.75 127.58 31.6523C127.658 31.3789 127.707 31.0273 127.727 30.5977C127.766 30.168 127.785 29.6504 127.785 29.0449V17.6777C127.785 17.0723 127.766 16.5547 127.727 16.125C127.707 15.6758 127.658 15.3242 127.58 15.0703C127.541 14.9531 127.395 14.8555 127.141 14.7773C126.887 14.6797 126.613 14.6016 126.32 14.543C126.027 14.4844 125.793 14.4551 125.617 14.4551C125.539 14.4551 125.5 14.3281 125.5 14.0742C125.5 13.8398 125.539 13.6836 125.617 13.6055L129.133 13.752C129.289 13.752 129.65 13.7422 130.217 13.7227C130.783 13.6836 131.555 13.6445 132.531 13.6055C132.57 13.7617 132.59 13.9082 132.59 14.0449C132.59 14.3184 132.551 14.4551 132.473 14.4551C132.355 14.4551 132.15 14.4941 131.857 14.5723C131.564 14.6309 131.291 14.709 131.037 14.8066C130.783 14.8848 130.637 14.9727 130.598 15.0703C130.422 15.7344 130.334 16.6426 130.334 17.7949V28.9277C130.334 30.0605 130.422 30.9688 130.598 31.6523C130.637 31.7305 130.783 31.8184 131.037 31.916C131.291 32.0137 131.564 32.0918 131.857 32.1504C132.15 32.209 132.355 32.2383 132.473 32.2383C132.551 32.2383 132.59 32.3848 132.59 32.6777C132.59 32.7949 132.57 32.9316 132.531 33.0879C131.555 33.0488 130.783 33.0195 130.217 33C129.65 32.9609 129.289 32.9414 129.133 32.9414L125.617 33.0879ZM134.875 33.0879C134.816 33.0293 134.787 32.873 134.787 32.6191C134.787 32.3652 134.816 32.2383 134.875 32.2383C135.051 32.2383 135.285 32.209 135.578 32.1504C135.871 32.0723 136.145 31.9844 136.398 31.8867C136.672 31.7891 136.838 31.6816 136.896 31.5645C137.033 31.3496 137.102 30.4316 137.102 28.8105V17.7363C137.102 17.1699 137.082 16.6719 137.043 16.2422C137.023 15.8125 136.975 15.4707 136.896 15.2168C136.857 15.0996 136.701 14.9922 136.428 14.8945C136.174 14.7969 135.891 14.7188 135.578 14.6602C135.285 14.6016 135.051 14.5723 134.875 14.5723C134.797 14.5723 134.758 14.4551 134.758 14.2207C134.758 13.9668 134.797 13.8008 134.875 13.7227C135.383 13.7422 135.92 13.7617 136.486 13.7812C137.072 13.7812 137.697 13.7812 138.361 13.7812L140.822 13.752H142.492C142.746 13.752 143 13.7617 143.254 13.7812C143.527 13.8008 143.791 13.8301 144.045 13.8691C144.826 14.0059 145.559 14.2695 146.242 14.6602C146.945 15.0312 147.512 15.5391 147.941 16.1836C148.391 16.8281 148.615 17.6191 148.615 18.5566C148.615 19.2402 148.391 19.8945 147.941 20.5195C147.492 21.125 147.072 21.5449 146.682 21.7793C146.311 22.0137 145.988 22.1797 145.715 22.2773C145.559 22.3359 145.51 22.3945 145.568 22.4531C145.959 22.5117 146.398 22.6875 146.887 22.9805C147.375 23.2734 147.844 23.6543 148.293 24.123C148.742 24.5723 149.113 25.0898 149.406 25.6758C149.719 26.2617 149.875 26.877 149.875 27.5215C149.875 28.6348 149.562 29.6016 148.938 30.4219C148.332 31.2422 147.473 31.877 146.359 32.3262C145.246 32.7754 143.938 33 142.434 33H138.42L134.875 33.0879ZM141.584 22.0723C142.209 22.0723 142.756 22.043 143.225 21.9844C144.025 21.9062 144.689 21.6328 145.217 21.1641C145.764 20.6758 146.037 20.0312 146.037 19.2305C146.037 17.8828 145.695 16.8379 145.012 16.0957C144.348 15.334 143.352 14.9531 142.023 14.9531C141.105 14.9531 140.412 15.0215 139.943 15.1582C139.826 15.1777 139.768 15.2656 139.768 15.4219L139.65 18.3809V21.8672C139.65 22.0039 140.295 22.0723 141.584 22.0723ZM141.701 31.6816C142.189 31.6816 142.668 31.6426 143.137 31.5645C143.625 31.4863 144.201 31.3301 144.865 31.0957C145.529 30.8809 146.066 30.5 146.477 29.9531C146.887 29.3867 147.092 28.6836 147.092 27.8438C147.092 27.0039 146.906 26.2422 146.535 25.5586C146.164 24.875 145.598 24.3281 144.836 23.918C144.074 23.5078 143.088 23.3027 141.877 23.3027C141.662 23.3027 141.379 23.3125 141.027 23.332C140.676 23.3516 140.256 23.3809 139.768 23.4199C139.689 23.6348 139.65 23.957 139.65 24.3867V28.6641C139.65 30.1484 139.807 31.0176 140.119 31.2715C140.432 31.5449 140.959 31.6816 141.701 31.6816Z" fill="#1B1B1B"/>
<path d="M4.48 34.832C3.66933 34.832 2.99733 34.4587 2.464 33.712C1.952 32.944 1.696 31.952 1.696 30.736C1.696 29.6053 1.97333 28.4853 2.528 27.376C3.104 26.2667 3.86133 25.2 4.8 24.176C5.73867 23.152 6.76267 22.2133 7.872 21.36C8.98133 20.4853 10.0907 19.728 11.2 19.088C12.3307 18.448 13.3653 17.9467 14.304 17.584C15.2427 17.2213 15.9893 17.04 16.544 17.04C16.8427 17.04 17.088 17.104 17.28 17.232C17.472 17.3387 17.568 17.5413 17.568 17.84C17.568 18.032 17.4933 18.2133 17.344 18.384C17.3653 18.384 17.3867 18.384 17.408 18.384C17.8773 18.384 18.112 18.6613 18.112 19.216C18.112 19.408 18.0373 19.8027 17.888 20.4C17.7387 20.976 17.568 21.7013 17.376 22.576C17.184 23.4507 17.0133 24.4213 16.864 25.488C16.7147 26.5333 16.64 27.6 16.64 28.688C16.64 29.6053 16.992 30.064 17.696 30.064C18.4853 30.064 19.2853 29.8827 20.096 29.52C20.9067 29.1573 21.696 28.72 22.464 28.208C23.232 27.6747 23.936 27.152 24.576 26.64C25.216 26.1067 25.76 25.6587 26.208 25.296C26.656 24.9333 26.976 24.752 27.168 24.752C27.3387 24.752 27.488 24.8053 27.616 24.912C27.744 25.0187 27.808 25.1893 27.808 25.424C27.808 25.6373 27.5947 26.0213 27.168 26.576C26.7413 27.1307 26.176 27.76 25.472 28.464C24.768 29.168 23.9787 29.8507 23.104 30.512C22.2293 31.1733 21.3333 31.7173 20.416 32.144C19.4987 32.5707 18.624 32.784 17.792 32.784C17.152 32.784 16.5653 32.592 16.032 32.208C15.52 31.8027 15.104 31.12 14.784 30.16C14.4853 29.2 14.336 27.8773 14.336 26.192V25.392C13.2907 27.12 12.192 28.6987 11.04 30.128C9.90933 31.5573 8.77867 32.6987 7.648 33.552C6.53867 34.4053 5.48267 34.832 4.48 34.832ZM15.936 19.344C15.8293 19.3867 15.68 19.4507 15.488 19.536C14.5067 19.984 13.4827 20.5387 12.416 21.2C11.3707 21.8613 10.3467 22.5973 9.344 23.408C8.36267 24.2187 7.47733 25.0613 6.688 25.936C5.89867 26.8107 5.26933 27.696 4.8 28.592C4.33067 29.488 4.096 30.3627 4.096 31.216C4.096 31.4933 4.14933 31.7067 4.256 31.856C4.384 32.0053 4.59733 32.08 4.896 32.08C5.32267 32.08 5.87733 31.8133 6.56 31.28C7.24267 30.7253 7.98933 30 8.8 29.104C9.632 28.208 10.464 27.216 11.296 26.128C12.128 25.04 12.9173 23.9413 13.664 22.832C14.432 21.7227 15.0933 20.6987 15.648 19.76C15.7333 19.6107 15.8293 19.472 15.936 19.344ZM33.2615 35.28C31.6188 35.28 30.3282 34.7467 29.3895 33.68C28.4722 32.592 28.0135 31.0773 28.0135 29.136C28.0135 27.9413 28.1735 26.544 28.4935 24.944C28.8348 23.3227 29.2615 21.616 29.7735 19.824C30.3068 18.0107 30.8828 16.2187 31.5015 14.448C32.1202 12.6773 32.7175 11.0347 33.2935 9.52C33.8908 7.984 34.4135 6.704 34.8615 5.68C35.1175 5.104 35.4802 4.816 35.9495 4.816C36.5895 4.816 36.9095 5.21066 36.9095 6C36.9095 6.256 36.7922 6.77867 36.5575 7.568C36.3228 8.35733 36.0135 9.33867 35.6295 10.512C35.2455 11.664 34.8295 12.944 34.3815 14.352C33.9335 15.76 33.4748 17.2107 33.0055 18.704C32.5575 20.176 32.1415 21.6373 31.7575 23.088C31.3735 24.5173 31.0642 25.8613 30.8295 27.12C30.5948 28.3787 30.4775 29.456 30.4775 30.352C30.4775 30.928 30.6268 31.3867 30.9255 31.728C31.2455 32.048 31.6722 32.208 32.2055 32.208C33.1868 32.208 34.1682 32.016 35.1495 31.632C36.1522 31.2267 37.1122 30.736 38.0295 30.16C38.9468 29.5627 39.7788 28.976 40.5255 28.4C41.2935 27.8027 41.9442 27.312 42.4775 26.928C43.0108 26.5227 43.3842 26.32 43.5975 26.32C44.0668 26.32 44.3015 26.576 44.3015 27.088C44.3015 27.2587 44.1308 27.5787 43.7895 28.048C43.4482 28.496 42.9895 29.0293 42.4135 29.648C41.8375 30.2667 41.1655 30.9067 40.3975 31.568C39.6508 32.208 38.8615 32.816 38.0295 33.392C37.2188 33.9467 36.3975 34.3947 35.5655 34.736C34.7548 35.0987 33.9868 35.28 33.2615 35.28ZM42.031 23.76C41.455 23.7173 41.1883 23.344 41.231 22.64C41.2523 22.4693 41.3697 22.2667 41.583 22.032C41.7963 21.776 42.0417 21.6373 42.319 21.616C42.9803 21.552 43.791 21.456 44.751 21.328C45.7323 21.1787 46.8097 21.008 47.983 20.816C48.1963 19.7707 48.4523 18.672 48.751 17.52C49.0497 16.368 49.3803 15.248 49.743 14.16C50.1057 13.0507 50.4897 12.048 50.895 11.152C51.3003 10.256 51.727 9.552 52.175 9.04C52.4097 8.80533 52.623 8.64533 52.815 8.56C53.007 8.45333 53.1777 8.4 53.327 8.4C53.6257 8.4 53.8603 8.528 54.031 8.784C54.223 9.04 54.319 9.328 54.319 9.648C54.319 9.81867 54.287 9.98933 54.223 10.16C53.7963 11.3547 53.3377 12.8267 52.847 14.576C52.3563 16.3253 51.8337 18.2347 51.279 20.304C53.2417 19.984 55.2043 19.6427 57.167 19.28C59.1297 18.9173 60.815 18.5867 62.223 18.288C62.6283 18.1173 62.9377 18.1493 63.151 18.384C63.3857 18.6187 63.503 18.8533 63.503 19.088C63.503 19.3867 63.4177 19.6107 63.247 19.76C63.0977 19.9093 62.9377 20.0373 62.767 20.144L62.735 20.176C62.3083 20.3467 61.6683 20.5493 60.815 20.784C59.9617 20.9973 58.9803 21.232 57.871 21.488C56.7617 21.7227 55.5777 21.9573 54.319 22.192C53.0817 22.4267 51.855 22.64 50.639 22.832C50.1483 24.7093 49.647 26.64 49.135 28.624C48.6443 30.5867 48.1537 32.5173 47.663 34.416C47.4497 35.184 47.2043 35.664 46.927 35.856C46.671 36.0693 46.3937 36.176 46.095 36.176C45.7537 36.176 45.455 36.048 45.199 35.792C44.9643 35.536 44.9323 35.0133 45.103 34.224L47.439 23.312C46.159 23.504 45.0283 23.6427 44.047 23.728C43.087 23.8133 42.415 23.824 42.031 23.76Z" fill="#0022FF"/>
</svg>
