<svg width="63" height="33" viewBox="0 0 63 33" fill="none" xmlns="http://www.w3.org/2000/svg">
<path d="M3.48 30.832C2.66933 30.832 1.99733 30.4587 1.464 29.712C0.952 28.944 0.696 27.952 0.696 26.736C0.696 25.6053 0.973333 24.4853 1.528 23.376C2.104 22.2667 2.86133 21.2 3.8 20.176C4.73867 19.152 5.76267 18.2133 6.872 17.36C7.98133 16.4853 9.09067 15.728 10.2 15.088C11.3307 14.448 12.3653 13.9467 13.304 13.584C14.2427 13.2213 14.9893 13.04 15.544 13.04C15.8427 13.04 16.088 13.104 16.28 13.232C16.472 13.3387 16.568 13.5413 16.568 13.84C16.568 14.032 16.4933 14.2133 16.344 14.384C16.3653 14.384 16.3867 14.384 16.408 14.384C16.8773 14.384 17.112 14.6613 17.112 15.216C17.112 15.408 17.0373 15.8027 16.888 16.4C16.7387 16.976 16.568 17.7013 16.376 18.576C16.184 19.4507 16.0133 20.4213 15.864 21.488C15.7147 22.5333 15.64 23.6 15.64 24.688C15.64 25.6053 15.992 26.064 16.696 26.064C17.4853 26.064 18.2853 25.8827 19.096 25.52C19.9067 25.1573 20.696 24.72 21.464 24.208C22.232 23.6747 22.936 23.152 23.576 22.64C24.216 22.1067 24.76 21.6587 25.208 21.296C25.656 20.9333 25.976 20.752 26.168 20.752C26.3387 20.752 26.488 20.8053 26.616 20.912C26.744 21.0187 26.808 21.1893 26.808 21.424C26.808 21.6373 26.5947 22.0213 26.168 22.576C25.7413 23.1307 25.176 23.76 24.472 24.464C23.768 25.168 22.9787 25.8507 22.104 26.512C21.2293 27.1733 20.3333 27.7173 19.416 28.144C18.4987 28.5707 17.624 28.784 16.792 28.784C16.152 28.784 15.5653 28.592 15.032 28.208C14.52 27.8027 14.104 27.12 13.784 26.16C13.4853 25.2 13.336 23.8773 13.336 22.192V21.392C12.2907 23.12 11.192 24.6987 10.04 26.128C8.90933 27.5573 7.77867 28.6987 6.648 29.552C5.53867 30.4053 4.48267 30.832 3.48 30.832ZM14.936 15.344C14.8293 15.3867 14.68 15.4507 14.488 15.536C13.5067 15.984 12.4827 16.5387 11.416 17.2C10.3707 17.8613 9.34667 18.5973 8.344 19.408C7.36267 20.2187 6.47733 21.0613 5.688 21.936C4.89867 22.8107 4.26933 23.696 3.8 24.592C3.33067 25.488 3.096 26.3627 3.096 27.216C3.096 27.4933 3.14933 27.7067 3.256 27.856C3.384 28.0053 3.59733 28.08 3.896 28.08C4.32267 28.08 4.87733 27.8133 5.56 27.28C6.24267 26.7253 6.98933 26 7.8 25.104C8.632 24.208 9.464 23.216 10.296 22.128C11.128 21.04 11.9173 19.9413 12.664 18.832C13.432 17.7227 14.0933 16.6987 14.648 15.76C14.7333 15.6107 14.8293 15.472 14.936 15.344ZM32.2615 31.28C30.6188 31.28 29.3282 30.7467 28.3895 29.68C27.4722 28.592 27.0135 27.0773 27.0135 25.136C27.0135 23.9413 27.1735 22.544 27.4935 20.944C27.8348 19.3227 28.2615 17.616 28.7735 15.824C29.3068 14.0107 29.8828 12.2187 30.5015 10.448C31.1202 8.67733 31.7175 7.03467 32.2935 5.52C32.8908 3.984 33.4135 2.704 33.8615 1.68C34.1175 1.104 34.4802 0.815998 34.9495 0.815998C35.5895 0.815998 35.9095 1.21066 35.9095 2C35.9095 2.256 35.7922 2.77867 35.5575 3.568C35.3228 4.35733 35.0135 5.33867 34.6295 6.512C34.2455 7.664 33.8295 8.944 33.3815 10.352C32.9335 11.76 32.4748 13.2107 32.0055 14.704C31.5575 16.176 31.1415 17.6373 30.7575 19.088C30.3735 20.5173 30.0642 21.8613 29.8295 23.12C29.5948 24.3787 29.4775 25.456 29.4775 26.352C29.4775 26.928 29.6268 27.3867 29.9255 27.728C30.2455 28.048 30.6722 28.208 31.2055 28.208C32.1868 28.208 33.1682 28.016 34.1495 27.632C35.1522 27.2267 36.1122 26.736 37.0295 26.16C37.9468 25.5627 38.7788 24.976 39.5255 24.4C40.2935 23.8027 40.9442 23.312 41.4775 22.928C42.0108 22.5227 42.3842 22.32 42.5975 22.32C43.0668 22.32 43.3015 22.576 43.3015 23.088C43.3015 23.2587 43.1308 23.5787 42.7895 24.048C42.4482 24.496 41.9895 25.0293 41.4135 25.648C40.8375 26.2667 40.1655 26.9067 39.3975 27.568C38.6508 28.208 37.8615 28.816 37.0295 29.392C36.2188 29.9467 35.3975 30.3947 34.5655 30.736C33.7548 31.0987 32.9868 31.28 32.2615 31.28ZM41.031 19.76C40.455 19.7173 40.1883 19.344 40.231 18.64C40.2523 18.4693 40.3697 18.2667 40.583 18.032C40.7963 17.776 41.0417 17.6373 41.319 17.616C41.9803 17.552 42.791 17.456 43.751 17.328C44.7323 17.1787 45.8097 17.008 46.983 16.816C47.1963 15.7707 47.4523 14.672 47.751 13.52C48.0497 12.368 48.3803 11.248 48.743 10.16C49.1057 9.05067 49.4897 8.048 49.895 7.152C50.3003 6.256 50.727 5.552 51.175 5.04C51.4097 4.80533 51.623 4.64533 51.815 4.56C52.007 4.45333 52.1777 4.4 52.327 4.4C52.6257 4.4 52.8603 4.528 53.031 4.784C53.223 5.04 53.319 5.328 53.319 5.648C53.319 5.81867 53.287 5.98933 53.223 6.16C52.7963 7.35467 52.3377 8.82667 51.847 10.576C51.3563 12.3253 50.8337 14.2347 50.279 16.304C52.2417 15.984 54.2043 15.6427 56.167 15.28C58.1297 14.9173 59.815 14.5867 61.223 14.288C61.6283 14.1173 61.9377 14.1493 62.151 14.384C62.3857 14.6187 62.503 14.8533 62.503 15.088C62.503 15.3867 62.4177 15.6107 62.247 15.76C62.0977 15.9093 61.9377 16.0373 61.767 16.144L61.735 16.176C61.3083 16.3467 60.6683 16.5493 59.815 16.784C58.9617 16.9973 57.9803 17.232 56.871 17.488C55.7617 17.7227 54.5777 17.9573 53.319 18.192C52.0817 18.4267 50.855 18.64 49.639 18.832C49.1483 20.7093 48.647 22.64 48.135 24.624C47.6443 26.5867 47.1537 28.5173 46.663 30.416C46.4497 31.184 46.2043 31.664 45.927 31.856C45.671 32.0693 45.3937 32.176 45.095 32.176C44.7537 32.176 44.455 32.048 44.199 31.792C43.9643 31.536 43.9323 31.0133 44.103 30.224L46.439 19.312C45.159 19.504 44.0283 19.6427 43.047 19.728C42.087 19.8133 41.415 19.824 41.031 19.76Z" fill="#0022FF"/>
</svg>
