<svg width="2221" height="882" viewBox="0 0 2221 882" fill="none" xmlns="http://www.w3.org/2000/svg">
<path d="M1083.86 61.7826C1087.1 72.8747 1097.27 80.5 1108.82 80.5H2218C2219.07 80.5001 2219.94 81.3381 2219.99 82.3926C2220 82.4279 2220 82.4637 2220 82.5V880.5C2220 881.052 2219.55 881.5 2219 881.5H1C0.447715 881.5 0 881.052 0 880.5V82.5C3.08372e-06 82.3623 0.0269744 82.2308 0.0771484 82.1113C0.0400458 82.1993 0.0154191 82.2939 0.00488281 82.3926C0.0607575 81.338 0.931508 80.5 2 80.5H689.995C701.55 80.5 711.718 72.8747 714.955 61.7827L727.083 20.2174C730.319 9.12535 740.487 1.5 752.042 1.5H1046.78C1058.33 1.5 1068.5 9.12534 1071.74 20.2173L1083.86 61.7826Z" fill="white"/>
<path d="M1 81H690.49C702.403 81 712.792 72.9042 715.702 61.3526L725.959 20.6474C728.869 9.09585 739.258 1 751.171 1H1047.74C1059.65 1 1070.04 9.0959 1072.95 20.6475L1083.21 61.3525C1086.12 72.9041 1096.51 81 1108.42 81H2221" stroke="#0022FF" stroke-width="2"/>
</svg>
