<svg width="2220" height="286" viewBox="0 0 2220 286" fill="none" xmlns="http://www.w3.org/2000/svg">
<path d="M22.0342 84.4707C22.0206 84.5731 22.0105 84.6766 22.0049 84.7812C22.1194 82.1213 24.3119 80 27 80H552.494C564.407 80 574.796 71.9042 577.706 60.3526L587.459 21.6474C590.369 10.0958 600.758 2 612.671 2H860.329C872.242 2 882.631 10.0958 885.541 21.6474L895.294 60.3526C898.204 71.9042 908.593 80 920.506 80H2215C2217.69 80.0001 2219.88 82.1214 2219.99 84.7812C2219.99 84.74 2219.99 84.6991 2219.98 84.6582C2219.99 84.7709 2220 84.8848 2220 85V282C2220 284.209 2218.21 286 2216 286H26C23.7909 286 22 284.209 22 282V85C22 84.8206 22.0113 84.6439 22.0342 84.4707ZM22.3799 83.2939C22.3479 83.3616 22.3182 83.4304 22.29 83.5C22.3182 83.4304 22.348 83.3616 22.3799 83.2939ZM22.4883 83.082C22.4502 83.1515 22.4138 83.2221 22.3799 83.2939C22.4138 83.222 22.4503 83.1515 22.4883 83.082Z" fill="white"/>
<path d="M0 81H552.49C564.403 81 574.792 72.9042 577.702 61.3526L587.959 20.6475C590.869 9.09586 601.258 1 613.171 1H860.829C872.742 1 883.131 9.0959 886.041 20.6475L896.298 61.3525C899.208 72.9041 909.597 81 921.51 81H2219.5" stroke="#0022FF" stroke-width="2"/>
</svg>
