<svg width="2209" height="288" viewBox="0 0 2209 288" fill="none" xmlns="http://www.w3.org/2000/svg">
<path d="M11.0342 85.9707C11.0206 86.0731 11.0105 86.1766 11.0049 86.2812C11.1194 83.6213 13.3119 81.5 16 81.5H1319.24C1331.16 81.5 1341.54 73.4041 1344.45 61.8526L1354.46 22.1474C1357.37 10.5958 1367.76 2.5 1379.67 2.5H1627.33C1639.24 2.5 1649.63 10.5959 1652.54 22.1474L1662.55 61.8526C1665.46 73.4042 1675.84 81.5 1687.76 81.5H2204C2206.69 81.5001 2208.88 83.6214 2208.99 86.2812C2208.99 86.24 2208.99 86.1991 2208.98 86.1582C2208.99 86.2709 2209 86.3848 2209 86.5V283.5C2209 285.709 2207.21 287.5 2205 287.5H15C12.7909 287.5 11 285.709 11 283.5V86.5C11 86.3206 11.0113 86.1439 11.0342 85.9707ZM11.3799 84.7939C11.3479 84.8616 11.3182 84.9304 11.29 85C11.3182 84.9304 11.348 84.8616 11.3799 84.7939ZM11.4883 84.582C11.4502 84.6515 11.4138 84.7221 11.3799 84.7939C11.4138 84.722 11.4503 84.6515 11.4883 84.582Z" fill="white"/>
<path d="M0.5 81H1319.99C1331.9 81 1342.29 72.9042 1345.2 61.3526L1355.46 20.6474C1358.37 9.09585 1368.76 1 1380.67 1H1628.33C1640.24 1 1650.63 9.0959 1653.54 20.6475L1663.8 61.3525C1666.71 72.9041 1677.1 81 1689.01 81H2195" stroke="#0022FF" stroke-width="2"/>
</svg>
