<svg width="2220" height="881" viewBox="0 0 2220 881" fill="none" xmlns="http://www.w3.org/2000/svg">
<path d="M1514.93 61.3179C1518.18 72.3922 1528.34 80 1539.88 80H2218C2219.07 80.0001 2219.94 80.8381 2219.99 81.8926C2220 81.9279 2220 81.9637 2220 82V880C2220 880.552 2219.55 881 2219 881H1C0.447715 881 0 880.552 0 880V82C3.08372e-06 81.8623 0.0269744 81.7308 0.0771484 81.6113C0.0400458 81.6993 0.0154191 81.7939 0.00488281 81.8926C0.0607575 80.838 0.931508 80 2 80H1119.12C1130.66 80 1140.82 72.3923 1144.07 61.3179L1156.28 19.6821C1159.53 8.60775 1169.69 1 1181.23 1H1477.77C1489.31 1 1499.47 8.60773 1502.72 19.6821L1514.93 61.3179Z" fill="white"/>
<path d="M0 81H1118.49C1130.4 81 1140.79 72.9042 1143.7 61.3526L1153.96 20.6474C1156.87 9.09585 1167.26 1 1179.17 1H1478.58C1490.49 1 1500.88 9.0959 1503.79 20.6475L1514.05 61.3525C1516.96 72.9041 1527.35 81 1539.26 81H2220" stroke="#0022FF" stroke-width="2"/>
</svg>
