<svg width="430" height="856" viewBox="0 0 430 856" fill="none" xmlns="http://www.w3.org/2000/svg">
<path d="M228.719 36.678C232.086 47.5713 242.157 55 253.559 55H428C429.068 55 429.938 55.8381 429.994 56.8926C429.998 56.9279 430 56.9637 430 57V855C430 855.552 429.552 856 429 856H1C0.447718 856 0 855.552 0 855V57C6.24178e-06 56.9522 0.00425775 56.9054 0.0107422 56.8594C0.00917491 56.8705 0.00608008 56.8814 0.00488281 56.8926C0.0608075 55.8381 0.931542 55 2 55H6.87805C18.5213 55 28.745 47.2593 31.9032 36.0526L36.1602 20.9474C39.3185 9.74069 49.5422 2 61.1854 2H198.823C210.225 2 220.296 9.42867 223.663 20.322L228.719 36.678Z" fill="white"/>
<path d="M0 55.6034H5.22559C16.19 55.6034 25.976 48.7251 29.6892 38.4086L36.5918 19.2308C40.2939 8.94519 50.0343 2.07379 60.9658 2.0361L198.669 1.56129C209.386 1.52433 219.028 8.06708 222.953 18.0398L231.015 38.5259C234.928 48.4681 244.524 55.0045 255.209 55.0045L430 55.0046" stroke="#0022FF" stroke-width="2"/>
</svg>
