<svg width="2220" height="881" viewBox="0 0 2220 881" fill="none" xmlns="http://www.w3.org/2000/svg">
<path d="M950.902 61.371C954.168 72.4188 964.315 80 975.835 80H2218C2219.07 80 2219.94 80.838 2219.99 81.8926C2220 81.9279 2220 81.9637 2220 82V880C2220 880.552 2219.55 881 2219 881H1C0.447715 881 0 880.552 0 880V82C1.07626e-06 81.9519 0.00323147 81.9047 0.00976562 81.8584C0.00815227 81.8698 0.00610839 81.8811 0.00488281 81.8926C0.0607527 80.838 0.931505 80 2 80H552.165C563.685 80 573.832 72.4188 577.098 61.3709L589.438 19.629C592.704 8.58123 602.851 1 614.371 1H913.629C925.149 1 935.296 8.58125 938.562 19.6291L950.902 61.371Z" fill="white"/>
<path d="M0 81H552.49C564.403 81 574.792 72.9042 577.702 61.3526L587.959 20.6475C590.869 9.09586 601.258 1 613.171 1H914.738C926.651 1 937.04 9.0959 939.95 20.6475L950.207 61.3525C953.117 72.9041 963.506 81 975.419 81H2220" stroke="#0022FF" stroke-width="2"/>
</svg>
