<svg width="2206" height="287" viewBox="0 0 2206 287" fill="none" xmlns="http://www.w3.org/2000/svg">
<path d="M8.03418 85.4707C8.02064 85.5731 8.01052 85.6766 8.00488 85.7812C8.1194 83.1213 10.3119 81 13 81H688.242C700.155 81 710.544 72.9041 713.454 61.3526L723.459 21.6474C726.369 10.0958 736.758 2 748.671 2H996.329C1008.24 2 1018.63 10.0959 1021.54 21.6474L1031.55 61.3526C1034.46 72.9042 1044.84 81 1056.76 81H2201C2203.69 81.0001 2205.88 83.1214 2205.99 85.7812C2205.99 85.74 2205.99 85.6991 2205.98 85.6582C2205.99 85.7709 2206 85.8848 2206 86V283C2206 285.209 2204.21 287 2202 287H12C9.79086 287 8 285.209 8 283V86C8 85.8206 8.01135 85.6439 8.03418 85.4707ZM8.37988 84.2939C8.34794 84.3616 8.31824 84.4304 8.29004 84.5C8.31819 84.4304 8.34798 84.3616 8.37988 84.2939ZM8.48828 84.082C8.45023 84.1515 8.41385 84.2221 8.37988 84.2939C8.41381 84.222 8.45025 84.1515 8.48828 84.082Z" fill="white"/>
<path d="M0 81.5H689.49C701.403 81.5 711.792 73.4042 714.702 61.8526L724.959 21.1474C727.869 9.59585 738.258 1.5 750.171 1.5H997.829C1009.74 1.5 1020.13 9.5959 1023.04 21.1475L1033.3 61.8525C1036.21 73.4041 1046.6 81.5 1058.51 81.5H2195" stroke="#0022FF" stroke-width="2"/>
</svg>
