<svg width="2217" height="287" viewBox="0 0 2217 287" fill="none" xmlns="http://www.w3.org/2000/svg">
<path d="M19.0342 84.9707C19.0206 85.0731 19.0105 85.1766 19.0049 85.2812C19.1194 82.6213 21.3119 80.5 24 80.5H897.494C909.407 80.5 919.796 72.4042 922.706 60.8526L932.459 22.1474C935.369 10.5958 945.758 2.5 957.671 2.5H1205.33C1217.24 2.5 1227.63 10.5958 1230.54 22.1474L1240.29 60.8526C1243.2 72.4042 1253.59 80.5 1265.51 80.5H2212C2214.69 80.5001 2216.88 82.6214 2216.99 85.2812C2216.99 85.24 2216.99 85.1991 2216.98 85.1582C2216.99 85.2709 2217 85.3848 2217 85.5V282.5C2217 284.709 2215.21 286.5 2213 286.5H23C20.7909 286.5 19 284.709 19 282.5V85.5C19 85.3206 19.0113 85.1439 19.0342 84.9707ZM19.3799 83.7939C19.3479 83.8616 19.3182 83.9304 19.29 84C19.3182 83.9304 19.348 83.8616 19.3799 83.7939ZM19.4883 83.582C19.4502 83.6515 19.4138 83.7221 19.3799 83.7939C19.4138 83.722 19.4503 83.6515 19.4883 83.582Z" fill="white"/>
<path d="M0.5 81H897.49C909.403 81 919.792 72.9042 922.702 61.3526L932.959 20.6474C935.869 9.09585 946.258 1 958.171 1H1205.83C1217.74 1 1228.13 9.0959 1231.04 20.6475L1241.3 61.3525C1244.21 72.9041 1254.6 81 1266.51 81H2212" stroke="#0022FF" stroke-width="2"/>
</svg>
