<svg width="2220" height="881" viewBox="0 0 2220 881" fill="none" xmlns="http://www.w3.org/2000/svg">
<path d="M1338.2 61.3707C1341.46 72.4186 1351.61 80 1363.13 80H2218C2219.07 80 2219.94 80.838 2219.99 81.8926C2220 81.9279 2220 81.9637 2220 82V880C2220 880.552 2219.55 881 2219 881H1C0.447715 881 0 880.552 0 880V82C1.07626e-06 81.9519 0.00323147 81.9047 0.00976562 81.8584C0.00815227 81.8698 0.00610839 81.8811 0.00488281 81.8926C0.0607527 80.838 0.931505 80 2 80H938.87C950.39 80 960.537 72.4187 963.803 61.3707L976.438 18.6293C979.704 7.58135 989.851 0 1001.37 0H1300.63C1312.15 0 1322.3 7.58135 1325.56 18.6293L1338.2 61.3707Z" fill="white"/>
<path d="M0 81.0001L939.081 81C950.994 81 961.383 72.9042 964.293 61.3526L974.55 20.6475C977.46 9.09585 987.849 1 999.762 1L1301.74 1.00005C1313.65 1.00006 1324.04 9.09595 1326.95 20.6476L1337.21 61.3526C1340.12 72.9042 1350.51 81.0001 1362.42 81.0001H2220" stroke="#0022FF" stroke-width="2"/>
</svg>
