<svg width="430" height="856" viewBox="0 0 430 856" fill="none" xmlns="http://www.w3.org/2000/svg">
<path d="M49.2813 36.178C45.9143 47.0713 35.8427 54.5 24.4409 54.5H2C0.931546 54.5 0.0618089 55.3381 0.00585938 56.3926C0.00208522 56.4279 3.92937e-06 56.4637 0 56.5V854.5C0 855.052 0.447723 855.5 1 855.5H429C429.552 855.5 430 855.052 430 854.5V56.5C430 56.4522 429.996 56.4054 429.989 56.3594C429.991 56.3705 429.994 56.3814 429.995 56.3926C429.939 55.3381 429.068 54.5 428 54.5H271.122C259.479 54.5 249.255 46.7593 246.097 35.5526L241.84 20.4474C238.681 9.24069 228.458 1.5 216.815 1.5H79.1773C67.7754 1.5 57.7039 8.92867 54.3368 19.822L49.2813 36.178Z" fill="white"/>
<path d="M430 55.1035H272.275C261.31 55.1035 251.524 48.2252 247.811 37.9087L240.908 18.7305C237.206 8.44513 227.466 1.57377 216.535 1.53587L79.7747 1.06164C69.0575 1.02447 59.4155 7.56725 55.4907 17.5401L47.4286 38.0259C43.5159 47.9681 33.9192 54.5045 23.2348 54.5045H0" stroke="#0022FF" stroke-width="2"/>
</svg>
