<svg width="2198" height="254" viewBox="0 0 2198 254" fill="none" xmlns="http://www.w3.org/2000/svg">
<path d="M0.0341797 85.4707C0.0206381 85.5731 0.0105224 85.6766 0.00488281 85.7812C0.119396 83.1213 2.31188 81 5 81H1118.24C1130.16 81 1140.54 72.9041 1143.45 61.3526L1153.46 21.6474C1156.37 10.0958 1166.76 2 1178.67 2H1426.33C1438.24 2 1448.63 10.0959 1451.54 21.6474L1461.55 61.3526C1464.46 72.9042 1474.84 81 1486.76 81H2193C2195.69 81.0001 2197.88 83.1214 2197.99 85.7812C2197.99 85.74 2197.99 85.6991 2197.98 85.6582C2197.99 85.7709 2198 85.8848 2198 86V308C2198 310.209 2196.21 312 2194 312H4C1.79086 312 0 310.209 0 308V86C2.09291e-07 85.8206 0.0113483 85.6439 0.0341797 85.4707ZM0.379883 84.2939C0.347939 84.3616 0.31824 84.4304 0.290039 84.5C0.318194 84.4304 0.347976 84.3616 0.379883 84.2939ZM0.488281 84.082C0.450234 84.1515 0.41385 84.2221 0.379883 84.2939C0.413814 84.222 0.450254 84.1515 0.488281 84.082Z" fill="white"/>
<path d="M0.5 81H1118.99C1130.9 81 1141.29 72.9042 1144.2 61.3526L1154.46 20.6474C1157.37 9.09585 1167.76 1 1179.67 1H1427.33C1439.24 1 1449.63 9.0959 1452.54 20.6475L1462.8 61.3525C1465.71 72.9041 1476.1 81 1488.01 81H2189" stroke="#0022FF" stroke-width="2"/>
</svg>
