<svg width="430" height="856" viewBox="0 0 430 856" fill="none" xmlns="http://www.w3.org/2000/svg">
<path d="M201.281 36.178C197.914 47.0713 187.843 54.5 176.441 54.5H2C0.931549 54.5 0.0617981 55.3381 0.00585938 56.3926C0.0020752 56.4279 0 56.4637 0 56.5V854.5C0 855.052 0.447723 855.5 1 855.5H429C429.552 855.5 430 855.052 430 854.5V56.5C430 56.4522 429.996 56.4054 429.989 56.3594C429.991 56.3705 429.994 56.3814 429.995 56.3926C429.939 55.3381 429.068 54.5 428 54.5H423.122C411.479 54.5 401.255 46.7593 398.097 35.5526L393.84 20.4474C390.681 9.24069 380.458 1.5 368.815 1.5H231.177C219.775 1.5 209.704 8.92867 206.337 19.822L201.281 36.178Z" fill="white"/>
<path d="M430 55.1034H424.774C413.81 55.1034 404.024 48.2251 400.311 37.9086L393.408 18.7308C389.706 8.44519 379.966 1.57379 369.034 1.5361L231.331 1.06129C220.614 1.02433 210.972 7.56708 207.047 17.5398L198.985 38.0259C195.072 47.9681 185.476 54.5045 174.791 54.5045L0 54.5046" stroke="#0022FF" stroke-width="2"/>
</svg>
