<svg width="2220" height="881" viewBox="0 0 2220 881" fill="none" xmlns="http://www.w3.org/2000/svg">
<path d="M1716.91 61.3531C1720.17 72.4098 1730.32 80 1741.85 80H2218C2219.07 80.0001 2219.94 80.8381 2219.99 81.8926C2220 81.9279 2220 81.9637 2220 82V880C2220 880.552 2219.55 881 2219 881H1C0.447715 881 0 880.552 0 880V82C3.08372e-06 81.8623 0.0269744 81.7308 0.0771484 81.6113C0.0400458 81.6993 0.0154191 81.7939 0.00488281 81.8926C0.0607575 80.838 0.931508 80 2 80H1319.15C1330.68 80 1340.83 72.4098 1344.09 61.3531L1356.38 19.6469C1359.64 8.59017 1369.8 1 1381.32 1H1679.68C1691.2 1 1701.36 8.59016 1704.62 19.6469L1716.91 61.3531Z" fill="white"/>
<path d="M0 81H1319.49C1331.4 81 1341.79 72.9042 1344.7 61.3526L1354.96 20.6474C1357.87 9.09585 1368.26 1 1380.17 1H1680.74C1692.65 1 1703.04 9.0959 1705.95 20.6475L1716.21 61.3525C1719.12 72.9041 1729.51 81 1741.42 81H2220" stroke="#0022FF" stroke-width="2"/>
</svg>
