<svg width="430" height="856" viewBox="0 0 430 856" fill="none" xmlns="http://www.w3.org/2000/svg">
<path d="M329.719 36.178C333.086 47.0713 343.157 54.5 354.559 54.5H428C429.068 54.5 429.938 55.338 429.994 56.3926C429.998 56.4279 430 56.4637 430 56.5V854.5C430 855.052 429.552 855.5 429 855.5H1C0.447718 855.5 0 855.052 0 854.5V56.5C1.07626e-06 56.4519 0.00323147 56.4047 0.00976562 56.3584C0.00815227 56.3698 0.00610839 56.3811 0.00488281 56.3926C0.0607527 55.338 0.931505 54.5 2 54.5H107.878C119.521 54.5 129.745 46.7593 132.903 35.5526L137.16 20.4474C140.319 9.24069 150.542 1.5 162.185 1.5H299.823C311.225 1.5 321.296 8.92867 324.663 19.822L329.719 36.178Z" fill="white"/>
<path d="M0 55.1034H106.226C117.19 55.1034 126.976 48.2251 130.689 37.9086L137.592 18.7308C141.294 8.44518 151.034 1.57379 161.966 1.5361L299.669 1.06129C310.386 1.02433 320.028 7.56708 323.953 17.5397L332.015 38.0259C335.928 47.9681 345.524 54.5045 356.209 54.5045H430" stroke="#0022FF" stroke-width="2"/>
</svg>
