<svg xmlns="http://www.w3.org/2000/svg" viewBox="0 0 441.74 444.29"><defs><style>.cls-1,.cls-6{fill:#fd96ff;}.cls-2,.cls-5{fill:#231f20;}.cls-3{fill:#f9f9f9;}.cls-4{fill:none;}.cls-4,.cls-5,.cls-6{stroke:#231f20;stroke-linecap:round;stroke-linejoin:round;stroke-width:4px;}.cls-7{fill:#fff;}</style></defs><g id="Layer_2" data-name="Layer 2"><g id="Layer_5" data-name="Layer 5"><circle class="cls-1" cx="329.62" cy="34.75" r="32.74"/><path class="cls-2" d="M329.55,69.49A34.74,34.74,0,0,1,302.3,13.28,34.74,34.74,0,0,1,364.11,30.6h0a34.73,34.73,0,0,1-30.35,38.64A35.09,35.09,0,0,1,329.55,69.49ZM329.64,4a30.75,30.75,0,1,0,30.5,27.08h0A30.79,30.79,0,0,0,329.64,4Z"/><path class="cls-2" d="M335.25,68.55a2,2,0,0,1-2-1.66L322,2.85a2,2,0,1,1,3.94-.7l11.3,64.05a2,2,0,0,1-1.62,2.32Z"/><path class="cls-2" d="M317.7,66.42a1.92,1.92,0,0,1-1.18-.39,2,2,0,0,1-.43-2.79C318,60.61,319,57,318.91,52.08A44,44,0,0,0,302.52,18.6,2,2,0,0,1,305,15.46a47.52,47.52,0,0,1,17.91,36.59c0,5.77-1.13,10.21-3.6,13.56A2,2,0,0,1,317.7,66.42Z"/><path class="cls-2" d="M355,55.65a2,2,0,0,1-1.06-.31,30.2,30.2,0,0,1-10.32-12.15c-2.38-5.6-3-13.71-2.58-18.87s1.12-10.47,4.68-16.06a2,2,0,0,1,3.38,2.15c-3.08,4.83-3.67,9.3-4.08,14.24s.26,12.22,2.28,17A26.07,26.07,0,0,0,356,52a2,2,0,0,1-1.06,3.7Z"/><path class="cls-2" d="M300.17,39a2,2,0,0,1-.08-4,430.56,430.56,0,0,0,66.82-8.28,2,2,0,1,1,.8,3.92A434.75,434.75,0,0,1,300.27,39Z"/><path class="cls-2" d="M309.15,55.25a2,2,0,0,1-.08-4,407,407,0,0,0,41.11-3.84c6-.88,12.37-1.94,18-4.48a6.09,6.09,0,0,0,2-1.22c.94-1,.69-3.12-.51-4.29a6.64,6.64,0,0,0-5.6-1.41,2,2,0,1,1-.58-4,10.65,10.65,0,0,1,9,2.51c2.75,2.69,3.06,7.19.68,9.83a9.71,9.71,0,0,1-3.3,2.19c-6.12,2.75-12.78,3.87-19.08,4.78a409.63,409.63,0,0,1-41.52,3.88Z"/><path class="cls-2" d="M310.07,48.31a146.27,146.27,0,0,1-19-1.25,12.57,12.57,0,0,1-5.56-1.74c-1.95-1.32-3.43-4-2.5-6.6a7,7,0,0,1,3.82-3.67A29.49,29.49,0,0,1,297,32.12a2,2,0,1,1,.39,4,25.46,25.46,0,0,0-8.79,2.53c-.69.34-1.62.86-1.84,1.45a2,2,0,0,0,1,1.93,9,9,0,0,0,3.84,1.08,140.63,140.63,0,0,0,46.75-1.65,2,2,0,0,1,.8,3.92A145.31,145.31,0,0,1,310.07,48.31Z"/><path class="cls-2" d="M355,26.49a2,2,0,0,1-.36-4l.81-.15c3.2-.55,5.67-1.05,7.57-1.47-.82.12-1.74.28-2.77.49a2,2,0,0,1-.81-3.91c6-1.24,10.08-1.15,12.24.27a2.55,2.55,0,0,1,1.23,2.68c-.37,1.79-1.79,3.26-16.77,5.88l-.78.14A2.2,2.2,0,0,1,355,26.49Z"/><path class="cls-2" d="M294.05,31.09h-3.12a2,2,0,0,1,0-4h0a362.51,362.51,0,0,0,54.19-3.61,2,2,0,1,1,.57,4A367.55,367.55,0,0,1,294.05,31.09Z"/><path class="cls-2" d="M308,63.68c-1.11,0-2.22,0-3.32,0s-4.65-.3-6.61-2.47a4.48,4.48,0,0,1-1.19-3.4c.22-3.07,3.34-4.59,4.52-5.17a2,2,0,1,1,1.75,3.59c-1.84.9-2.25,1.51-2.28,1.87a.51.51,0,0,0,.16.43,6.08,6.08,0,0,0,3.76,1.16c10.5.31,21.17-1,31.48-2.25,7.21-.87,14.66-1.78,21.63-4a1.67,1.67,0,0,1-.28-.18,2,2,0,0,1-.38-2.8,3.82,3.82,0,1,1,5.71,5,5.48,5.48,0,0,1-2.1,1.18c-7.84,2.74-16.11,3.74-24.1,4.71C327.34,62.51,317.66,63.68,308,63.68Z"/><path class="cls-1" d="M75.06,398.47c-1.87,1.48-5.38,1.73-6.82,2.33a24.7,24.7,0,0,1,6.59,2.66c1,.54,2.21,6.29,2.22,7.08.08-.94,1.4-5.72,3-7.09,1.44-1.21,4.45-1.44,7.63-2.42-4.14-.91-6.67-1.16-7.63-2-1.55-1.35-2.89-6.27-2.89-6.27S76.68,397.19,75.06,398.47Z"/><path class="cls-2" d="M77.05,412.52H77a2,2,0,0,1-1.9-2,24.78,24.78,0,0,0-1.44-5.48,21.65,21.65,0,0,0-5.75-2.31,2,2,0,0,1-.4-3.81,14.51,14.51,0,0,1,2.38-.66,11.17,11.17,0,0,0,4-1.4h0c.5-.39,1.18-2.52,1.4-4.38a2,2,0,0,1,3.92-.29c.56,2.06,1.63,4.73,2.27,5.29a17.17,17.17,0,0,0,3.66.92c.91.18,1.94.39,3.09.64a2,2,0,0,1,.16,3.86c-1.17.36-2.31.62-3.31.86A11.4,11.4,0,0,0,81.38,405c-.93.77-2.22,4.67-2.34,5.74A2,2,0,0,1,77.05,412.52Zm-2.49-11.46,1.2.62a4.32,4.32,0,0,1,1.61,2,6.9,6.9,0,0,1,1.45-1.81,6.06,6.06,0,0,1,1-.69,4.24,4.24,0,0,1-1.08-.69,6.89,6.89,0,0,1-1.36-1.77A5.16,5.16,0,0,1,76.3,400h0A7.57,7.57,0,0,1,74.56,401.06Zm.5-2.59h0Z"/><path class="cls-1" d="M348.09,398.54c-1.84-1.51-2.84-4.88-3.74-6.16a24.4,24.4,0,0,1-1.17,7c-.31,1.14-5.67,3.51-6.45,3.69.94-.12,5.9.14,7.59,1.45,1.49,1.15,2.36,4,4,6.94,0-4.24-.3-6.77.32-7.89,1-1.8,5.49-4.17,5.49-4.17S349.69,399.85,348.09,398.54Z"/><path class="cls-2" d="M348.32,413.47a2,2,0,0,1-1.74-1c-.6-1.06-1.1-2.12-1.55-3.05a11.58,11.58,0,0,0-1.93-3.29c-1-.74-5-1.16-6.11-1.05a2,2,0,0,1-2.21-1.65,2,2,0,0,1,1.5-2.28,24.41,24.41,0,0,0,5.05-2.58,21.6,21.6,0,0,0,1-6.11,2,2,0,0,1,3.64-1.21,15.84,15.84,0,0,1,1.15,2.17,11.16,11.16,0,0,0,2.22,3.59h0c.49.41,2.72.61,4.57.43a2,2,0,0,1,1.13,3.76c-1.88,1-4.26,2.62-4.67,3.36a17.26,17.26,0,0,0-.11,3.78c0,.92,0,2,0,3.15a2,2,0,0,1-1.49,1.93A1.79,1.79,0,0,1,348.32,413.47Zm-4.86-11.55a6.74,6.74,0,0,1,2.08,1,6.22,6.22,0,0,1,.91.87,4.17,4.17,0,0,1,.43-1.2,7.39,7.39,0,0,1,1.44-1.72,4.86,4.86,0,0,1-1.49-.81h0a7.77,7.77,0,0,1-1.38-1.48c-.11.44-.23.88-.34,1.3A4.2,4.2,0,0,1,343.46,401.92Z"/><path class="cls-2" d="M370.62,374.35a2,2,0,0,1-1.35-3.47c46.12-42.18,46.61-116,46.6-116.76a2,2,0,0,1,2-2h0a2,2,0,0,1,2,2c0,.77,0,19.25-5.93,43.36-5.44,22.3-17.14,53.65-42,76.35A2,2,0,0,1,370.62,374.35Z"/><path class="cls-2" d="M413.59,179.81a2,2,0,0,1-2-1.6c-9.18-45-42.05-76.52-42.38-76.84a2,2,0,1,1,2.75-2.9c.34.32,34.11,32.71,43.55,78.94a2,2,0,0,1-1.56,2.36A1.81,1.81,0,0,1,413.59,179.81Z"/><path class="cls-3" d="M250.36,206.48a2,2,0,0,0-1.59,0c-.19.09-18.69,8.47-32.43,12.26-7.78,2.14-29.75,6.1-39.16,7.76.36-.38.69-.69.94-.91a2,2,0,0,0-2.66-3c-.26.23-6.36,5.71-7.08,11.53a2,2,0,0,0,1.73,2.23l.25,0a2,2,0,0,0,2-1.76,8.42,8.42,0,0,1,.59-2.07c9.46,13.68,22.55,17.1,33.26,17.1,1.47,0,2.89-.06,4.25-.17,18.37-1.49,36.07-12.33,39.61-21,2.06-5,4.44-12.67,1.42-20.84A2,2,0,0,0,250.36,206.48Zm-33,16.13a221.44,221.44,0,0,0,23.73-8.47,7.78,7.78,0,0,1,.71,5.44c-2.81,1.72-19.36,9-44.38,14-11.45,2.29-14.13,2-17.5.7a1.93,1.93,0,0,0-.71-.12,37.49,37.49,0,0,1-2.75-3.45C185,229.21,208.94,224.94,217.4,222.61Zm-7.28,22.9a45.6,45.6,0,0,1-6.64.07,32.5,32.5,0,0,1,4.45-1.26A17.38,17.38,0,0,1,210,244a12.87,12.87,0,0,0,4.84-1.23c7.9-4.28,10.94-3.08,11.68-2.61a1.94,1.94,0,0,1,.84,1.11A58.21,58.21,0,0,1,210.12,245.51ZM246.35,227c-1.5,3.67-7.31,8.74-15.34,12.67a5.9,5.9,0,0,0-2.35-2.84c-2.35-1.49-7-2.26-15.72,2.47a9.84,9.84,0,0,1-3.4.78,22.8,22.8,0,0,0-2.49.38c-3.33.74-7,1.77-9.81,4.28a33.85,33.85,0,0,1-12.3-5.44h.32c2.94,0,6.82-.55,13-1.78a232,232,0,0,0,33.32-9.17c13.37-4.86,13.81-6.43,14-7.1a11.92,11.92,0,0,0-.73-8.63c1.4-.59,2.6-1.12,3.52-1.52C249.83,217.08,248.11,222.65,246.35,227Z"/><path class="cls-3" d="M339.18,71c.2-.12.73-.45,2,.23,2.58,1.41,5,14.77,3.47,21.24a17.41,17.41,0,0,0-5.68-.54,38,38,0,0,0-.3-4c-.62-4.32-1-8.72-1.23-13.07C337.38,74.09,338.05,71.71,339.18,71Z"/><path class="cls-3" d="M330.1,84.88a2.46,2.46,0,0,1,.84,0c1.87.3,3.44,1.54,3.65,2.89,0,0,0,0,0,0l.09.65a36.8,36.8,0,0,1,.28,4.68,6,6,0,0,0-3.08,4.36c-.15,1-.63,4.24,2,6.25l0,0a6,6,0,0,1-1.1,3.41,1.94,1.94,0,0,1-1.63.89,1.48,1.48,0,0,1-1.13-.52c-1.16-1.23-1.56-3.91-1.53-4.87.12-.69.23-1.36.32-2a27.2,27.2,0,0,0,.37-7c-.21-2.54-.43-5-1.47-6.86A2.86,2.86,0,0,1,330.1,84.88Z"/><path class="cls-3" d="M318.78,87.85a4.81,4.81,0,0,1,1.93-.37,7.16,7.16,0,0,1,2.21.37c1.48.47,1.89,1.58,2.29,6.25a24.25,24.25,0,0,1-.35,6,17.44,17.44,0,0,1-1.28,5.16c-.69,1.39-2.28,2.64-3.32,2.17-.79-.37-1.36-1.77-1.41-3.48,0-.66,0-1.34,0-2.06a16.81,16.81,0,0,0-.21-4.56,17.52,17.52,0,0,0-1.13-3.18,7.74,7.74,0,0,1-1-3.54A3.61,3.61,0,0,1,318.78,87.85Z"/><path class="cls-3" d="M249.07,188.42a35.24,35.24,0,0,0-3.48-10.48,2,2,0,0,0-2.22-1c-.68.15-1.38.29-2,.41a16.26,16.26,0,0,0,1.71-5,4.81,4.81,0,0,0,.08-1.29,4.76,4.76,0,0,0-.78-2.1h0c-.43-.71-1-1.78-1.52-2.91-1.7-3.41-3.69-7.38-6.28-9.43.2,0,.4,0,.6,0a6.48,6.48,0,0,1,2.93.73c7.66,3.82,13.51,21.18,15.65,29.44C252.6,187.17,251,187.76,249.07,188.42Z"/><path class="cls-3" d="M223.26,156.07a55.71,55.71,0,0,1-4.4,3.42,26.44,26.44,0,0,1-3.84,2.17,2,2,0,0,0,.83,3.82,1.94,1.94,0,0,0,.84-.19,31.32,31.32,0,0,0,4.41-2.48c1.29-.87,2.48-1.83,3.64-2.78-.07.21-.16.41-.22.62-3.15,10.61,6.72,28.12,9.92,33.39-3.76,1-6.61,1.65-8,2l-.62-2.52a4.24,4.24,0,0,0-1-2.08,4.28,4.28,0,0,0-3.78-.89,90.14,90.14,0,0,0-21.48,6.12l-1.14.45c-2.29.88-5.43,2.09-6.19,5.48a9,9,0,0,0,.08,3.29l-.26.1c-.05,0-1.35.7-3.71,1.73-1.67-5.28-7.74-23-16.72-31.69.48.05,1,.11,1.44.14h.16a2,2,0,0,0,.15-4,90.58,90.58,0,0,1-21-4.13l83.85-22.78c-.84.77-1.72,1.51-2.59,2.23Z"/><path class="cls-3" d="M176,211l-3.7-15a3.65,3.65,0,0,0-1.4-2.29,3.75,3.75,0,0,0-2.9-.43l-2,.38a25.5,25.5,0,0,0,3.9-5.45,2,2,0,0,0-.05-1.67,29.08,29.08,0,0,0-10.15-11.34,7.51,7.51,0,0,1,1.41-.15,8.33,8.33,0,0,1,3.43.78c10.12,4.58,17.79,26.38,19.85,32.76C182.76,209.1,180,210,176,211Z"/><path class="cls-3" d="M267.24,113.7a7.67,7.67,0,0,1,9.13,4.8L116.71,162.89l-2.34-9.47Z"/><path class="cls-3" d="M180.22,100c14.22-3.35,26-4.79,34.05-4.79,6.75,0,10.88,1,11.61,2.76,3,7,5.64,15.1,6.82,18.77l-9.16,2.38c-1.73-5.53-3.85-11.61-5.13-12.85-6.57-6.42-53.59,4.82-68.53,14.59-5.14,3.37-7.11,6.75-5.89,10l2.7,8.26-9.87,2.56a79.67,79.67,0,0,1-4-19.68C132.47,116.86,150.51,107,180.22,100Z"/><path class="cls-3" d="M97.45,165.54l13.29-10.12L113,164.5,98.31,174.55,96.61,168A2.32,2.32,0,0,1,97.45,165.54Z"/><path class="cls-3" d="M65.19,310.31l.31,1.61a13.65,13.65,0,0,0-1.1,1.66,9.12,9.12,0,0,0-.45.95l-1.78-.48A13.19,13.19,0,0,1,65.19,310.31Z"/><path class="cls-3" d="M95.22,368.27c-5.81.39-49.43-15.35-54.12-19.53.21-4,7.54-26.76,13.49-31.57a1.9,1.9,0,0,1,1.12-.56c4.36,1.33,44.58,15.6,51.65,19.76C108,340.71,98.35,364.75,95.22,368.27Z"/><path class="cls-3" d="M101.59,325.12l2-1.57a11.54,11.54,0,0,1-.66,6.19l-1.35-.52A14.14,14.14,0,0,0,101.59,325.12Z"/><path class="cls-3" d="M111.82,303.55a8,8,0,0,1-2.63,3.43,42.42,42.42,0,0,0,.94-8.51,7.53,7.53,0,0,0-.38-2.19,2.54,2.54,0,0,1,1.53.42C112.77,297.59,112.7,301.74,111.82,303.55Z"/><path class="cls-3" d="M109,290.3c-.55.57-3.7.78-6.87.18a2,2,0,0,0-.91,3.9c2.76.76,2.76.76,3.64,1.45a4,4,0,0,1,1.24,2.65,41,41,0,0,1-1,8.28c-.21,1-.44,2.07-.67,3.11s-.47,2.16-.69,3.25c-.74,3.65-4,7-6,7h-.16c-3.35-.32-4.26-2.26-4.74-4.31l-.08-.31a2,2,0,0,0-1.19-1.35,1.91,1.91,0,0,0-.74-.14,2,2,0,0,0-1.06.3l-.51.32c-1.62,1-4.35,2.78-6.88,2s-4-3.05-4-4.29a2,2,0,0,0-3.4-1.5,5.06,5.06,0,0,1-1.53,1,2.48,2.48,0,0,1-2,0,2.6,2.6,0,0,1-1.45-1.46c-1.33-3.43-.51-8,.47-12.13a20.31,20.31,0,0,1,2.05-5.9c1.1-1.82,3.67-3.87,5-4a2,2,0,0,0,.49-3.87,14.45,14.45,0,0,1-4.25-2.34c1.4-1,5.62-1.31,10.52-.91.9.13,2,.26,3.19.37h.1c1.69.24,3.41.55,5.07.94C103.31,285.06,109.3,288.73,109,290.3Z"/><path class="cls-3" d="M127,283.14a2,2,0,0,1-1-1.3l-24.43-94.7,14.89-8.71L144.06,289.9a26.21,26.21,0,0,1-9.44-2.63Z"/><path class="cls-3" d="M140.67,378.72c-3.15-1.55-5.8-4.7-7.46-8.85-1.57-3.91-2.17-8.27-2.76-12.49l-3.25-23.57c-.59-4.25-.43-9.72,1.78-12.3a10.28,10.28,0,0,1,7.49-3.14c-.12.09-.25.17-.37.27-5,3.9-5.11,6.58-5.4,11.9l0,.44c-1,17.39,2.9,36.4,8.8,43.28a21.59,21.59,0,0,0,9.32,5.83A16.66,16.66,0,0,1,140.67,378.72Z"/><path class="cls-3" d="M152.7,342.28a2,2,0,0,0-1.91,2.09,2,2,0,0,0,2.09,1.91c12.75-.58,16.82,7.57,18,14.51S167,373.35,166,374.39c-2.75,2.78-6.68,3.24-9.48,3.14-5.34-.19-11.22-2.66-14-5.87-4.56-5.31-8.85-22.3-7.84-40.46l0-.44c.28-5.13.34-6.19,3.88-9,4.46-3.51,15.14-4.27,24.57-4.95l1.11-.08a93.66,93.66,0,0,0,1.17,17.52c.48,2.33,1.09,4.65,1.78,6.94-1.17.38-3,1-5.42,2.08l-.08,0A25.61,25.61,0,0,0,152.7,342.28Z"/><path class="cls-3" d="M184.52,347.32c-.54,2-1.49,3.17-2.88,3.53-2.28.58-5.2-1-5.95-1.74a22.23,22.23,0,0,1-3.68-6,79.34,79.34,0,0,1-2.68-9.65c-.8-3.83-2.46-20.49.75-24.58.86-1.1,1.66-1.35,3.57-1.87l.54-.15c1.71-.49,5.13,1.43,6.73,3.34a11.71,11.71,0,0,1,.88,1.23l-1.1.07a4.18,4.18,0,0,0-3.49-1.36c-.77.12-2.58.76-2.75,3.9-.51,9.41.26,18.61,2.1,25.26.31,1.12,2,5.08,4.54,5.08a2.56,2.56,0,0,0,.39,0c2-.3,2.4-2.37,2.46-3.81l.86-.07A30.45,30.45,0,0,1,184.52,347.32Z"/><path class="cls-3" d="M279.53,391.15h0a14.1,14.1,0,0,1-5.19-.82c1.21-1.21,2.39-2.47,3.54-3.75a7.17,7.17,0,0,0,2,.47c-.17.46-.33.94-.48,1.41a2,2,0,0,0,1.91,2.6h.51C281.08,391.12,280.31,391.15,279.53,391.15Z"/><path class="cls-3" d="M285.34,378a17.14,17.14,0,0,0,2.32.5,6.39,6.39,0,0,1-.65.92,2,2,0,0,0,1.52,3.29l2.87,0-.19.69a2,2,0,0,0,2.82,2.32l.17-.08a7,7,0,0,1-.24.87,1.93,1.93,0,0,0,0,1.44c-1.85.73-3.61,1.34-5.33,1.83l0,0a2,2,0,0,0-.24-1.86,2,2,0,0,0-1.67-.86h0l-2.61,0c.19-.47.39-.93.59-1.39a2,2,0,0,0-2.13-2.8,14.91,14.91,0,0,1-1.64.2l1.92-2.24Z"/><path class="cls-3" d="M298.16,386.13a9.72,9.72,0,0,0-.22-4.19,2,2,0,0,0-1.12-1.28,1.52,1.52,0,0,0-.82-.17,1.92,1.92,0,0,0-.39-1,2,2,0,0,0-1.58-.8l-2.08,0a11.12,11.12,0,0,0,.46-1.74,2,2,0,0,0-.46-1.65,2,2,0,0,0-1.57-.69,14.36,14.36,0,0,1-2-.09c1.26-1.37,2.54-2.7,3.85-4a2,2,0,0,0,1.08.33h4.18l-.83,2.4a2,2,0,0,0,2,2.65l2.4-.12c-.14.21-.3.42-.46.63a2,2,0,0,0,2.09,3.16,19.15,19.15,0,0,1,3.76-.61c0,.11-.09.22-.14.33a2,2,0,0,0,.08,1.86l-1.7,1.08C302.59,383.61,300.41,385,298.16,386.13Z"/><path class="cls-3" d="M300.49,363.64a1.92,1.92,0,0,0,.86.22l4.62.08a13.55,13.55,0,0,1-.72,2.92,2,2,0,0,0,2.35,2.63l3.77-.92c0,.49.05,1,.06,1.46a2,2,0,0,0,.95,1.65,2,2,0,0,0,1.9.11l.73-.34,1.11,2.71a59,59,0,0,1-5.45,4.21,7.58,7.58,0,0,0,0-1.58,2,2,0,0,0-1.89-1.81,24.14,24.14,0,0,0-2.69,0c.1-.21.18-.42.27-.64a2,2,0,0,0-.24-1.9,2,2,0,0,0-1.73-.83l-3,.16.24-.69a3.39,3.39,0,0,0-.45-3.59,2,2,0,0,0-1.5-.65h-3.3C297.72,365.81,299.13,364.69,300.49,363.64Z"/><path class="cls-3" d="M319.19,371.1l-1.09-2.64a2.47,2.47,0,0,0-1.1-1.29,2.27,2.27,0,0,0-1.72-.21c0-.36,0-.72-.09-1.07a2,2,0,0,0-.83-1.45,2,2,0,0,0-1.63-.32l-2.85.7a17.17,17.17,0,0,0,.2-2.87,2,2,0,0,0-2-2l-2.46,0q.9-.6,1.71-1.11a2,2,0,0,0,1.72.58c1.15-.18,2.32-.31,3.5-.4v.89a2,2,0,0,0,1.06,1.72,2,2,0,0,0,2-.08,7.53,7.53,0,0,1,1.09-.57l0,2.71a2,2,0,0,0,3.26,1.58,7.59,7.59,0,0,1,1.2-.8q.33,1,.69,1.89a2.1,2.1,0,0,0,.37.59A27.58,27.58,0,0,1,319.19,371.1Z"/><path class="cls-3" d="M324.91,360c-.11.59-.25,1.16-.4,1.73-.06-.18-.13-.36-.18-.54a2,2,0,0,0-2.42-1.34,11.22,11.22,0,0,0-1.12.36l0-1.21a2.53,2.53,0,0,0-.63-1.78,2.39,2.39,0,0,0-2.2-.72,10.49,10.49,0,0,0-1.44.29,2,2,0,0,0-.62-1.39,1.91,1.91,0,0,0-.77-.44c1-.35,2.12-.69,3.38-1,2.21-.61,3.72-.62,4.75,0C325,354.91,325.32,357.7,324.91,360Z"/><path class="cls-3" d="M322.1,349.52a13.59,13.59,0,0,0-4.64.59c-6.48,1.8-9.32,3.31-15.14,7.24a126,126,0,0,0-11.52,9.1,130.32,130.32,0,0,0-10.94,11.76c-2.26,2.64-4.58,5.35-7,7.88l0-.06c-.1-.34-.21-.68-.31-1a31.56,31.56,0,0,1,3.27-4.63l.48-.61a94,94,0,0,1,6.57-6.9c1.55-1.53,3-3,4.11-4.17a70.39,70.39,0,0,1,18.17-14.15l2.17-1.22c3.71-2.11,8.29-4.76,11.69-4.62A6.77,6.77,0,0,1,322.1,349.52Z"/><path class="cls-3" d="M285.08,354.08a1.59,1.59,0,0,0,.15.21,31.13,31.13,0,0,0-2.54,3.65,34.45,34.45,0,0,0-2.22,4.42,2,2,0,0,0,1.08,2.62,2.06,2.06,0,0,0,.76.15,2,2,0,0,0,1.85-1.23,30.37,30.37,0,0,1,2-3.91,22.64,22.64,0,0,1,11-9.82,24.53,24.53,0,0,1,10-1.33c-.62.34-1.22.69-1.8,1l-2.1,1.18A74.19,74.19,0,0,0,284,366c-1,1.12-2.46,2.53-4,4a93,93,0,0,0-6.9,7.26l-.47.61c-.66.83-1.33,1.67-1.95,2.52l-2-4.7a81.61,81.61,0,0,0-6.55-13.13c2.2-1.36,5.26-3.39,9.59-6.28,3.33-2.22,7-4.64,10.2-6.71A20.16,20.16,0,0,1,285.08,354.08Z"/><path class="cls-3" d="M281.83,337.49a8.14,8.14,0,0,1,3.76,4.63c.1.55,0,.62-.22.73-4.3,2.44-10.42,6.53-15.82,10.14-5.06,3.38-11.36,7.58-12.55,7.93-.86.13-1.41-.12-2.76-1.74-1.8-2.16-2-3.09-1.93-3.45.13-.87,2-2.16,4.24-3.64l.89-.6a166.55,166.55,0,0,1,21.12-12.32Z"/><path class="cls-3" d="M302.81,242.68c-15.87,5.35-29.54,9.67-42.17,13.51l-22.94,6.87-3.56,1.05L227,266.22a1.53,1.53,0,0,0-.47.07l-10.08,3.07c-5.13,1.54-10.4,3.14-15.88,4.84l-.74.22h0c-13.11,4.07-27.52,8.72-44.41,14.54a23.77,23.77,0,0,1-7.21,1.11L120.15,176.77l25.43-6.91a93.57,93.57,0,0,0,9,3,12.59,12.59,0,0,0-5.82,7.67c-3.5,12.45,8.51,32.16,10.83,35.8a142.44,142.44,0,0,1-18.49,2.34,2,2,0,0,0,.12,4h.12c28.31-1.7,48.33-11.09,51.94-12.89a9.84,9.84,0,0,0,1.81,3.34,4.65,4.65,0,0,0,3.4,1.27,11,11,0,0,0,2.2-.27c8.26-1.76,17.62-3.76,25.42-8.71a3.9,3.9,0,0,0,1.54-1.64,3.84,3.84,0,0,0,.08-2.54l-.34-1.35c6.28-1.41,38.25-9,55.42-20.41a2,2,0,1,0-2.21-3.33c-6.15,4.08-14.46,7.7-22.76,10.7-1.11-4.49-7.3-27.76-18-33.11a10.24,10.24,0,0,0-6.33-1l2.63-2.18A42.3,42.3,0,0,0,241.1,146a2,2,0,0,0,.31-2.14l40.29-11c11.81,31.84,23.56,64.62,26.92,96.79C309.36,236.75,307.4,241.13,302.81,242.68Z"/><path class="cls-3" d="M348.91,110.19l-.07.28a16.22,16.22,0,0,1-.76,2.62,6.19,6.19,0,0,0-.27.63c-1.13,2.79-2.71,5.66-5.87,5.86a2,2,0,0,0-1.86,1.72,2,2,0,0,0-.13.41,2,2,0,0,0,1.58,2.34,1.66,1.66,0,0,1,1,.83,3,3,0,0,1,.34,2.33,3.84,3.84,0,0,1-2.08,2.28,8.51,8.51,0,0,1-3.55.61,55.35,55.35,0,0,1-6.4-.5c-1.73-.2-3.51-.41-5.31-.49-1.58-.07-3.18,0-4.72,0-3.94.08-7.66.15-10.94-1.33-.19-.09-.27-.14-.27-.12a1.58,1.58,0,0,1-.11-.52,4.83,4.83,0,0,1,2.46-4.71l.09,0a22.86,22.86,0,0,0,7.75,1.45h.06a2,2,0,0,0,.06-4c-11.93-.35-13.09-8.3-13.59-11.69l-.08-.55a17.21,17.21,0,0,1,.38-7.5,6.43,6.43,0,0,1,2.25-3.66,4.08,4.08,0,0,1,5.14.81c1.37,1.6.89,4.16.06,5.85-.32.66-.69,1.06-1,1.07a1,1,0,0,1-.7-.53,2,2,0,0,0-3.92.79,4.92,4.92,0,0,0,4.09,3.71,4.41,4.41,0,0,0,2.91-.67,6.27,6.27,0,0,0,3.13,3.65,5.23,5.23,0,0,0,2.18.49,7.09,7.09,0,0,0,5.25-2.76,8.22,8.22,0,0,0,1.11,1.52,5.46,5.46,0,0,0,4,1.77,5.94,5.94,0,0,0,4.79-2.43,9.5,9.5,0,0,0,1.79-4.27,11.82,11.82,0,0,0,5.73-.25,2,2,0,0,0-1.18-3.83,7.35,7.35,0,0,1-6-.71c-.24-.18-.74-.57-.45-2.51.07-.51.26-1.07,1.63-1.77s4-.62,6.53.09c2,.56,2.69,1.65,3.67,3.16l.1.15C349.31,102.11,349.79,106.5,348.91,110.19Z"/><path class="cls-3" d="M53.93,328.75A2,2,0,0,0,51.61,332c4,2.84,7.87,4.35,15.42,7.22a5.29,5.29,0,0,0,1.49,5.33,13.86,13.86,0,0,0,7.91,3.07,6,6,0,0,0,1-.09,4.05,4.05,0,0,0,3.1-2.32c0-.08.07-.17.11-.25A54.26,54.26,0,0,0,98,349.43h.15a2,2,0,0,0,.16-4,50.44,50.44,0,0,1-16.36-4.3,4.63,4.63,0,0,0-.27-2.1c-.64-1.67-2.25-3-5.38-4.29-3.85-1.66-6.28-.27-7.25,1h0C61.41,332.82,57.59,331.37,53.93,328.75ZM71.44,339.1a5.05,5.05,0,0,1,.53-.67c.15-.15.15-.11.22-.24.27-.23,1.06-.39,2.52.23,2.62,1.13,3.13,1.82,3.22,2.06.19.49-.47,1.93-1,3.07-.82.55-4.73-1-5.62-1.83C71,341.35,70.35,340.73,71.44,339.1Z"/><path class="cls-3" d="M75.29,298.54a2,2,0,0,0-3,2.7,4,4,0,0,0,2.83,1.3h.09a2,2,0,0,0,0-4Zm-.05,0h0Z"/><path class="cls-3" d="M86.41,303.14c-.41.09-.43.08-.65-.09a2,2,0,0,0-2.41,3.2,4.25,4.25,0,0,0,2.68.94,5.82,5.82,0,0,0,1.3-.16,2,2,0,1,0-.92-3.89Z"/><path class="cls-3" d="M95.32,305.34A2,2,0,0,0,94.24,308c.54,1.32,2.14,1.68,3.3,1.68a4.77,4.77,0,0,0,.83-.07A2,2,0,0,0,100,307.2a2,2,0,0,0-2.34-1.57,1,1,0,0,1-.29,0A2,2,0,0,0,95.32,305.34Z"/><path class="cls-3" d="M82.56,288a2,2,0,0,0,2,2,21.1,21.1,0,0,1,9,2.24,2.1,2.1,0,0,0,1,.24,2,2,0,0,0,1-3.75A25.24,25.24,0,0,0,84.56,286,2,2,0,0,0,82.56,288Z"/><path class="cls-2" d="M3,259a179.55,179.55,0,0,1,23.59-19.47c.35,3.88.59,5.83,1.16,9.75A165.07,165.07,0,0,0,7.64,266.76c-.27-1.21-.4-1.81-.65-3a192.86,192.86,0,0,0,25.61,8.32c1.11,4,1.73,5.94,3.08,9.9a209.58,209.58,0,0,1-29.74-9.09C4.55,267.28,4,264.5,3,259Zm24.9,14.72-5.57,1.56a161.53,161.53,0,0,1-5.24-24.4l5.73-.82A157.33,157.33,0,0,0,27.87,273.67Z"/><path class="cls-2" d="M1,201.63l6,.67A162.18,162.18,0,0,0,6,228.83c-1.43-1.89-2.13-2.84-3.51-4.78l23.38,0c0,3.59.06,5.39.26,9l-26,1.28A300.42,300.42,0,0,1,1,201.63Zm9.54,27.42a158.28,158.28,0,0,1,1-25.37l6,.64a153.12,153.12,0,0,0-.92,24.58Z"/><path class="cls-2" d="M1.79,195.31A201.12,201.12,0,0,1,10.48,159l6.05,2a194.72,194.72,0,0,0-8.42,35.23Zm5.5-12.94c.83-3.85,1.28-5.76,2.29-9.55l22.12,5.81c-.9,3.36-1.31,5.06-2,8.48Z"/><path class="cls-2" d="M29.26,146.66c3.47,2.48,5.21,3.7,8.72,6.1-1.76.78-2.63,1.18-4.39,2a155,155,0,0,1,10.76-21.95l5.06,2.88a165.53,165.53,0,0,0-12.29,26c-4.54-2.7-6.79-4.08-11.28-6.9-5.22-.93-7.84-1.37-13.09-2.17a305.53,305.53,0,0,1,14-29.58l5.06,2.88a167.46,167.46,0,0,0-11.48,23.45c-.62-1.92-.92-2.89-1.49-4.84C23,145.35,25.09,145.77,29.26,146.66Zm5.86-17.38,4.54,2.54a157.67,157.67,0,0,0-10.44,21.57l-4.83-1.94A163,163,0,0,1,35.12,129.28Z"/><path class="cls-2" d="M44.68,115.74c2.73-4,4.16-6,7.13-9.81a6.65,6.65,0,0,0,1.53-3.22,2.48,2.48,0,0,0-.94-2.36,2.45,2.45,0,0,0-2.53-.42A6.68,6.68,0,0,0,47,102.25c-3.39,4.37-5,6.62-8.1,11.21-.19-2.17-.27-3.27-.4-5.47l19.75,13.78c-2,2.78-2.9,4.2-4.73,7.07L31.57,115A173.26,173.26,0,0,1,43.66,97.91a19.19,19.19,0,0,1,5.26-4.79,10.59,10.59,0,0,1,5.23-1.62,6.32,6.32,0,0,1,4.37,1.68,6.55,6.55,0,0,1,2.17,4.07,10.77,10.77,0,0,1-.64,5.21,20.6,20.6,0,0,1-3.3,5.7c-3.22,4.1-4.77,6.21-7.71,10.53Zm4.86-2.65c2.38-3.32,3.62-5,6.18-8.14a149.55,149.55,0,0,1,16.66-.81c-2.65,2.92-3.93,4.42-6.42,7.47A150.1,150.1,0,0,0,49.54,113.09Z"/><path class="cls-2" d="M115.46,65.61c-.94.54-1.42.81-2.35,1.37-1.94-9.52-2.72-14.36-3.89-24.14,3.66-2,5.51-2.89,9.27-4.66A234,234,0,0,0,121.05,66c-3.89,2.09-5.8,3.19-9.54,5.51a221.36,221.36,0,0,0-20-13.42c1.3-.89,1.95-1.33,3.26-2.2a220.23,220.23,0,0,0,4.8,23.69c-3.52,2.59-5.24,3.94-8.6,6.73A238,238,0,0,0,66.31,73.39c3-2.8,4.59-4.17,7.77-6.82,8.56,4.8,12.72,7.35,20.75,12.75-.85.64-1.28,1-2.13,1.62a224.52,224.52,0,0,1-5.92-24.18c3.36-2.4,5.07-3.55,8.55-5.78A223.71,223.71,0,0,1,115.46,65.61Z"/><path class="cls-2" d="M150.64,54a30.12,30.12,0,0,1-9.76,1.66,16.54,16.54,0,0,1-7.9-1.92,11.47,11.47,0,0,1-5-5.57,10.55,10.55,0,0,1-.5-7.53,15.54,15.54,0,0,1,5-7.16,31.77,31.77,0,0,1,21.19-6.83,15.94,15.94,0,0,1,8.31,2.88,10.36,10.36,0,0,1,4,6.41A11.3,11.3,0,0,1,165,43.4a17.3,17.3,0,0,1-5.41,6.2A30.68,30.68,0,0,1,150.64,54Zm-2-6.11a16.57,16.57,0,0,0,5-2.43,8.35,8.35,0,0,0,2.79-3.33,6.05,6.05,0,0,0,.26-4,5.8,5.8,0,0,0-2.23-3.36,8,8,0,0,0-4.29-1.36,16.07,16.07,0,0,0-5.85.89,15.83,15.83,0,0,0-5.21,2.68,8.08,8.08,0,0,0-2.7,3.61,5.75,5.75,0,0,0,.13,4,6,6,0,0,0,2.55,3.11,8.37,8.37,0,0,0,4.19,1.09A16.57,16.57,0,0,0,148.68,47.87Z"/><path class="cls-2" d="M180.37,31.86c5-.63,7.55-.86,12.66-1.16a7.37,7.37,0,0,0,3.62-1,2.5,2.5,0,0,0,1.25-2.27,2.48,2.48,0,0,0-1.44-2.19,7.31,7.31,0,0,0-3.8-.59c-5.83.33-8.72.61-14.43,1.37,1.57-1.59,2.38-2.38,4-3.95l2.7,24c-3.53.38-5.28.62-8.76,1.19L172,21.57a164.36,164.36,0,0,1,21.76-2.3,21.39,21.39,0,0,1,7.5.81,11.51,11.51,0,0,1,5,2.91,6.05,6.05,0,0,1,1.71,4.41,6.28,6.28,0,0,1-1.76,4.31,11.59,11.59,0,0,1-4.65,2.92,23.23,23.23,0,0,1-6.85,1.26c-5.51.28-8.24.52-13.64,1.2C180.78,35,180.64,34,180.37,31.86Zm5.42,1.88c4.26-.42,6.4-.57,10.73-.75a158.2,158.2,0,0,1,12.31,12.09c-4.23-.11-6.33-.11-10.51,0A155.35,155.35,0,0,0,185.79,33.74Z"/><path class="cls-2" d="M216.27,45.43c.65-10.38,1-15.57,1.62-25.95,4.19.29,6.3.49,10.53,1-.93,8.06-1.39,12.09-2.31,20.14-1-.71-1.43-1.07-2.39-1.77a151.81,151.81,0,0,1,23.81-15.16c4.55,1,6.84,1.53,11.41,2.78A162.84,162.84,0,0,0,224.61,46.2C221.26,45.82,219.59,45.66,216.27,45.43ZM234.18,35c3.19-1.26,4.83-1.86,8.17-3a170.7,170.7,0,0,1,10.22,19.63c-4.29-1.18-6.43-1.7-10.69-2.61C239.05,43.37,237.51,40.55,234.18,35Z"/><path class="cls-2" d="M121.92,427.81a4.31,4.31,0,0,1-1.86,2.72,7.21,7.21,0,0,1-3.73,1,21,21,0,0,1-10.49-2.84,8.72,8.72,0,0,1-3-3,4.4,4.4,0,0,1-.53-3.29c2.34.68,3.52,1,5.86,1.65a2.21,2.21,0,0,0,.5,1.27,4,4,0,0,0,1.37,1.09,10.13,10.13,0,0,0,2.25.84,8.51,8.51,0,0,0,2.72.36c.66-.06,1-.31,1.15-.74s-.08-.65-.49-.94a11.11,11.11,0,0,0-2.23-1c-1.13-.38-1.69-.57-2.81-1a16.06,16.06,0,0,1-4.31-2.06,5.19,5.19,0,0,1-2-2.31,4,4,0,0,1-.07-2.48,4.12,4.12,0,0,1,1.95-2.54,7.5,7.5,0,0,1,3.61-.83,18.21,18.21,0,0,1,4.83.7,16.31,16.31,0,0,1,4.57,1.89,9.05,9.05,0,0,1,2.88,2.69,4.79,4.79,0,0,1,.78,3.17c-2.33-.56-3.5-.85-5.82-1.44a2,2,0,0,0-.38-1.08,3.85,3.85,0,0,0-1.14-1,7.67,7.67,0,0,0-2.08-.83,6.9,6.9,0,0,0-2.41-.31c-.59.07-.94.3-1,.7a.81.81,0,0,0,.29.85A5,5,0,0,0,112,420c1.46.51,2.2.76,3.66,1.25a16.4,16.4,0,0,1,4.21,1.87,4.78,4.78,0,0,1,1.9,2.15A4.19,4.19,0,0,1,121.92,427.81Z"/><path class="cls-2" d="M128.86,418.46c2.28.52,3.43.76,5.72,1.24l-.93,4.45-.39.6c-.37,1.73-.55,2.6-.92,4.34v1.33c-.78,3.7-1.17,5.54-1.94,9.24-2.41-.5-3.61-.76-6-1.3Zm2.24,8.61a9,9,0,0,1,2.47-4,8.67,8.67,0,0,1,3.55-2.24,9,9,0,0,1,8.2,1.58,7.51,7.51,0,0,1,2.28,3.39,9,9,0,0,1,.26,4.51,8.84,8.84,0,0,1-1.76,4.13,7.21,7.21,0,0,1-3.38,2.38,9.38,9.38,0,0,1-8.51-1.63,8.38,8.38,0,0,1-2.44-3.48A9.22,9.22,0,0,1,131.1,427.07ZM142,429.24a4.22,4.22,0,0,0-.11-2.16,3.84,3.84,0,0,0-1.12-1.68,4.08,4.08,0,0,0-1.93-.91,5.11,5.11,0,0,0-2.3.08,6,6,0,0,0-2.13,1,2.37,2.37,0,0,0-.85,4.09,5.88,5.88,0,0,0,1.58,1.78,5.15,5.15,0,0,0,2.15.95,4.19,4.19,0,0,0,2.15-.1,3.61,3.61,0,0,0,1.68-1.14A4.11,4.11,0,0,0,142,429.24Z"/><path class="cls-2" d="M161.2,440.75a13.85,13.85,0,0,1-5.48-1.82,8.53,8.53,0,0,1-3.29-3.47,7.32,7.32,0,0,1-.64-4.52,7.55,7.55,0,0,1,2-4.14,8.8,8.8,0,0,1,4.06-2.35,15.13,15.13,0,0,1,10.83,1.44,8.93,8.93,0,0,1,3.32,3.34,7.48,7.48,0,0,1,.84,4.49A7.33,7.33,0,0,1,171,438a8.45,8.45,0,0,1-4.09,2.48A13.66,13.66,0,0,1,161.2,440.75Zm.55-4.14a5.69,5.69,0,0,0,2.55-.18,3.61,3.61,0,0,0,1.76-1.21,4.35,4.35,0,0,0,.82-2.15,4.43,4.43,0,0,0-.28-2.31,3.57,3.57,0,0,0-1.38-1.61,5.72,5.72,0,0,0-2.37-.81,5.56,5.56,0,0,0-2.51.16,3.61,3.61,0,0,0-1.77,1.19,4.85,4.85,0,0,0-.64,4.43,3.63,3.63,0,0,0,1.39,1.65A5.73,5.73,0,0,0,161.75,436.61Z"/><path class="cls-2" d="M177.47,426.26c2.35.23,3.53.33,5.88.53.2,2.28.31,3.42.52,5.71-.33,4.05-.49,6.08-.81,10.14-2.4-.19-3.6-.3-6-.53.39-4.18.59-6.27,1-10.45C177.81,429.5,177.69,428.42,177.47,426.26Zm14.45.89c-.11,1.92-.17,2.89-.29,4.81a15.76,15.76,0,0,0-1.6-.33c-.5-.08-1-.14-1.39-.17a5.71,5.71,0,0,0-2.35.32,3.85,3.85,0,0,0-1.83,1.46,5.86,5.86,0,0,0-.88,2.91c-.41-.57-.62-.85-1-1.42a19.45,19.45,0,0,1,.95-3.16A10.35,10.35,0,0,1,185,429a6,6,0,0,1,2.09-1.71,5.71,5.71,0,0,1,2.88-.48,8.45,8.45,0,0,1,1,.12C191.25,427,191.59,427.06,191.92,427.15Z"/><path class="cls-2" d="M194.55,431.74c0-1,.08-1.48.13-2.46l3.36-1.14c1.09-1.83,1.62-2.74,2.68-4.58,1.3.05,2,.08,3.26.11l-.13,4.27c2.72.08,4.08.11,6.81.15,0,1.67,0,2.51-.06,4.18-2.75,0-4.13-.06-6.88-.15-.05,1.86-.08,2.79-.14,4.65a3.25,3.25,0,0,0,.66,2.44,3.87,3.87,0,0,0,2.64.76,10.37,10.37,0,0,0,2.18-.17,9.35,9.35,0,0,0,1.74-.52l-.05,4.27a14.43,14.43,0,0,1-2.34.52,16.35,16.35,0,0,1-3,.18,10.82,10.82,0,0,1-4.56-.94,5.49,5.49,0,0,1-2.54-2.42,7.08,7.08,0,0,1-.69-3.56c.1-2.17.15-3.26.24-5.43Z"/><path class="cls-2" d="M234.7,438.35a4.28,4.28,0,0,1-1,3.13,7.16,7.16,0,0,1-3.28,2,18.06,18.06,0,0,1-5.23.79,18.43,18.43,0,0,1-5.55-.63,8.7,8.7,0,0,1-3.7-2,4.45,4.45,0,0,1-1.4-3c2.41,0,3.62,0,6,0a2.24,2.24,0,0,0,.82,1.08,4.22,4.22,0,0,0,1.6.67,10.57,10.57,0,0,0,2.38.19,8.31,8.31,0,0,0,2.7-.41c.6-.24.9-.58.88-1s-.25-.61-.72-.77a10.39,10.39,0,0,0-2.4-.34l-2.94-.16a15.77,15.77,0,0,1-4.67-.79,5.22,5.22,0,0,1-2.48-1.68A4,4,0,0,1,215,433a4.08,4.08,0,0,1,1.16-3,7.3,7.3,0,0,1,3.21-1.79,18.22,18.22,0,0,1,4.8-.67,16.72,16.72,0,0,1,4.87.56,9.13,9.13,0,0,1,3.49,1.8,4.78,4.78,0,0,1,1.61,2.83c-2.38.11-3.57.15-5.95.23a1.9,1.9,0,0,0-.66-.94,3.68,3.68,0,0,0-1.36-.67,7.42,7.42,0,0,0-2.21-.23,6.74,6.74,0,0,0-2.39.38c-.54.23-.8.54-.8,1a.82.82,0,0,0,.51.74,5.25,5.25,0,0,0,1.89.36l3.84.19a16.47,16.47,0,0,1,4.52.64A4.84,4.84,0,0,1,233.9,436,4.23,4.23,0,0,1,234.7,438.35Z"/><path class="cls-2" d="M268.35,433.85a6.5,6.5,0,0,1-1.14,3.92,9.1,9.1,0,0,1-3.34,2.92,13.33,13.33,0,0,1-4.94,1.44,12.92,12.92,0,0,1-5.54-.51,8.59,8.59,0,0,1-3.92-2.61,7.34,7.34,0,0,1-1.65-4.23,7.51,7.51,0,0,1,.94-4.47,8.81,8.81,0,0,1,3.3-3.25,12.73,12.73,0,0,1,5.12-1.57,13.17,13.17,0,0,1,4.95.35,9.49,9.49,0,0,1,3.83,2.05,6.78,6.78,0,0,1,2.08,3.52c-2.33.3-3.5.45-5.83.72a3.41,3.41,0,0,0-1.71-2,5.62,5.62,0,0,0-5.07.26,3.44,3.44,0,0,0-1.35,1.55,4.54,4.54,0,0,0-.32,2.33,4.43,4.43,0,0,0,.75,2.19,3.5,3.5,0,0,0,1.65,1.26,5,5,0,0,0,2.33.25,5,5,0,0,0,2.78-1.11,3.33,3.33,0,0,0,1.22-2.28C264.84,434.3,266,434.16,268.35,433.85Z"/><path class="cls-2" d="M270.79,418.73c2.28-.32,3.42-.49,5.69-.85,1.33,8.43,2,12.65,3.31,21.08-2.4.37-3.6.55-6,.89Z"/><path class="cls-2" d="M292.51,437.21a8.24,8.24,0,0,1-4.14-.17,6.12,6.12,0,0,1-3-2.11,8.24,8.24,0,0,1-1.53-3.72l-1.48-8.71c2.29-.39,3.43-.59,5.72-1,.58,3.16.88,4.74,1.46,7.9a3.75,3.75,0,0,0,1.38,2.48,3.44,3.44,0,0,0,2.74.43,4.12,4.12,0,0,0,2-.88,3.34,3.34,0,0,0,1-1.63,4.81,4.81,0,0,0,0-2.24l2,.53a9.94,9.94,0,0,1-.56,4.46,7.38,7.38,0,0,1-5.63,4.68Zm6.93-1.83c-.95-2.39-1.41-3.59-2.35-6-.75-3.72-1.13-5.57-1.89-9.29,2.28-.46,3.42-.7,5.69-1.2.89,4.05,1.34,6.07,2.23,10.12.89,2,1.34,3.06,2.24,5.09C303,434.64,301.81,434.89,299.44,435.38Z"/><path class="cls-2" d="M305.15,412.28c2.25-.53,3.37-.8,5.61-1.36,1,3.92,1.48,5.88,2.46,9.81-.17.63-.25.95-.41,1.58.38,1.55.57,2.33,1,3.88l1.1,1.15,1.07,4.27c-2.36.59-3.55.88-5.92,1.44Zm7,12.14a9.13,9.13,0,0,1,.48-4.7A8.8,8.8,0,0,1,323,414,7.56,7.56,0,0,1,326.5,416a9.18,9.18,0,0,1,2.21,3.94,8.87,8.87,0,0,1,.21,4.49,7.18,7.18,0,0,1-2,3.62,9.4,9.4,0,0,1-8.4,2.26,8.47,8.47,0,0,1-3.73-2.07A9.15,9.15,0,0,1,312.16,424.42Zm10.76-2.8a4.25,4.25,0,0,0-1.05-1.9,3.78,3.78,0,0,0-1.73-1,4.14,4.14,0,0,0-2.15,0,5,5,0,0,0-2.05,1.08,6.37,6.37,0,0,0-1.47,1.86,6.68,6.68,0,0,0-.7,2.35,6.54,6.54,0,0,0,1.73,1.71,6,6,0,0,0,2.2.91,5.19,5.19,0,0,0,2.35-.09,4.16,4.16,0,0,0,1.92-1,3.63,3.63,0,0,0,1-1.75A4.21,4.21,0,0,0,322.92,421.62Z"/><path class="cls-2" d="M406.33,216.23a7.76,7.76,0,0,1-3.27-.66,5.47,5.47,0,0,1-2.27-1.85,4.81,4.81,0,0,1-.83-2.79,4.68,4.68,0,0,1,.81-2.73,5.26,5.26,0,0,1,2.19-1.83,7.39,7.39,0,0,1,3.13-.65,5.94,5.94,0,0,1,3.1.77,5.09,5.09,0,0,1,2,2.2,7.79,7.79,0,0,1,.68,3.37H403.2v-2.27h6.35l-1.16.78a2.78,2.78,0,0,0-.34-1.15,1.83,1.83,0,0,0-.74-.72,2.27,2.27,0,0,0-1.08-.24,2.52,2.52,0,0,0-1.21.27,1.9,1.9,0,0,0-.77.77,2.29,2.29,0,0,0-.27,1.12,2.69,2.69,0,0,0,.39,1.49,2.49,2.49,0,0,0,1.18.93,5.4,5.4,0,0,0,2,.32,9.13,9.13,0,0,0,2.13-.26,7.77,7.77,0,0,0,1.92-.76v2.45a8.32,8.32,0,0,1-2.36,1.07A10.53,10.53,0,0,1,406.33,216.23Z"/><path class="cls-2" d="M425.14,212.63a2.86,2.86,0,0,1-.74,2,4.36,4.36,0,0,1-2.08,1.2,12.57,12.57,0,0,1-6.48-.05,5.28,5.28,0,0,1-2.23-1.27,2.8,2.8,0,0,1-.87-1.92h4a1.09,1.09,0,0,0,.43.6,2.2,2.2,0,0,0,.86.37,6,6,0,0,0,1.29.13,4.67,4.67,0,0,0,1.42-.17c.33-.11.5-.27.5-.49s-.13-.34-.39-.44a5.54,5.54,0,0,0-1.31-.2l-1.68-.12a11.13,11.13,0,0,1-2.89-.52,3.17,3.17,0,0,1-1.54-1.06,2.57,2.57,0,0,1-.47-1.56,2.61,2.61,0,0,1,.73-1.9,4.38,4.38,0,0,1,2-1.14,11.1,11.1,0,0,1,3-.37,9.86,9.86,0,0,1,3.05.43,5.46,5.46,0,0,1,2.14,1.21,3.07,3.07,0,0,1,.94,1.82h-4a1,1,0,0,0-.37-.54,2.05,2.05,0,0,0-.74-.38,4.26,4.26,0,0,0-1.16-.13,4,4,0,0,0-1.32.16c-.29.11-.43.27-.43.48a.44.44,0,0,0,.27.41,2.64,2.64,0,0,0,1,.19l2.25.16a9.92,9.92,0,0,1,2.82.49,3,3,0,0,1,1.48,1A2.86,2.86,0,0,1,425.14,212.63Z"/><path class="cls-2" d="M425.64,208.92v-1.71l2-.9,1.73-3h2.25V206h4v2.91h-4v2.48a2.06,2.06,0,0,0,.39,1.42,2.09,2.09,0,0,0,1.53.42,5.92,5.92,0,0,0,1.26-.12,6.4,6.4,0,0,0,1-.28v2.92a9.53,9.53,0,0,1-1.4.32,10.29,10.29,0,0,1-1.79.15,6.46,6.46,0,0,1-2.79-.52,3.53,3.53,0,0,1-1.65-1.49,4.6,4.6,0,0,1-.54-2.28v-3Z"/><path class="cls-2" d="M394,226a3.78,3.78,0,0,1,.83-2.16,4.8,4.8,0,0,1,2-1.39,7.55,7.55,0,0,1,2.77-.49,6.78,6.78,0,0,1,2.57.45,4,4,0,0,1,1.71,1.22,2.88,2.88,0,0,1,.61,1.83,2.75,2.75,0,0,1-.45,1.51,5.13,5.13,0,0,1-1.39,1.35,15.35,15.35,0,0,1-2.45,1.33l-2.65,1.22-.07-.8h7.29v2.52H394.22v-2.22l4.47-2.45c.68-.37,1.2-.67,1.56-.92a2.92,2.92,0,0,0,.76-.68,1.12,1.12,0,0,0,.22-.67A1,1,0,0,0,401,225a1.26,1.26,0,0,0-.62-.43,2.87,2.87,0,0,0-1-.15,3.14,3.14,0,0,0-1.24.21,1.83,1.83,0,0,0-.72.58,1.72,1.72,0,0,0-.29.79Z"/><path class="cls-2" d="M411.77,232.8a6.83,6.83,0,0,1-3.12-.68,5,5,0,0,1-2.07-1.9,5.88,5.88,0,0,1,0-5.71,5.08,5.08,0,0,1,2.07-1.9,7.54,7.54,0,0,1,6.26,0,5.17,5.17,0,0,1,2.08,1.9,5.88,5.88,0,0,1,0,5.71,5.1,5.1,0,0,1-2.08,1.9A6.89,6.89,0,0,1,411.77,232.8Zm0-2.61a2.65,2.65,0,0,0,2-.74,3.39,3.39,0,0,0,0-4.18,2.67,2.67,0,0,0-2-.73,2.72,2.72,0,0,0-2,.73,3.36,3.36,0,0,0,0,4.18A2.74,2.74,0,0,0,411.8,230.19Z"/><path class="cls-2" d="M418.69,226a3.78,3.78,0,0,1,.83-2.16,4.8,4.8,0,0,1,2-1.39,7.55,7.55,0,0,1,2.77-.49,6.78,6.78,0,0,1,2.57.45,4,4,0,0,1,1.71,1.22,2.94,2.94,0,0,1,.61,1.83,2.75,2.75,0,0,1-.45,1.51,5.28,5.28,0,0,1-1.39,1.35,15.07,15.07,0,0,1-2.46,1.33l-2.64,1.22-.07-.8h7.29v2.52H419v-2.22l4.47-2.45A17.67,17.67,0,0,0,425,227a3,3,0,0,0,.77-.68,1.19,1.19,0,0,0,.22-.67,1,1,0,0,0-.21-.65,1.26,1.26,0,0,0-.62-.43,2.87,2.87,0,0,0-1-.15,3.14,3.14,0,0,0-1.24.21,1.7,1.7,0,0,0-.72.58,1.72,1.72,0,0,0-.29.79Z"/><path class="cls-2" d="M440.17,222.17v10.39H437v-9h.91l-5.21,5.75v-1h9.06v2.34H430.38v-2.25l5.72-6.28Z"/><path class="cls-4" d="M96.24,164,112,152l154.79-40.22a9.67,9.67,0,0,1,11.5,6.06c13,35.27,28.46,74.26,32.37,111.64.73,7-.92,13-7.16,15.11-58.25,19.64-85.52,25-147.37,46.29-6.39,2.2-16.47,1.39-22.41-1.83l-7.62-4.13a4.06,4.06,0,0,1-2-2.57L94.67,168.47A4.35,4.35,0,0,1,96.24,164Z"/><line class="cls-4" x1="111.95" y1="151.98" x2="146.66" y2="292.07"/><path class="cls-4" d="M192.93,207.73s-21.11,11.12-51.69,13"/><path class="cls-4" d="M225.93,198.17s37.2-8,55.8-20.36"/><path class="cls-4" d="M135.55,144.05a81.08,81.08,0,0,1-4.75-22c-1-15.81,91.37-38.08,96.92-24.91,4,9.57,7.52,21,7.52,21l-13.05,3.39S218.36,109,217,107.7c-6.34-6.19-75.75,10.29-71.13,22.51l3.36,10.28Z"/><path class="cls-4" d="M161.65,215.82S139.4,182.15,156.76,174s30.06,35.72,30.06,35.72S179,213.16,161.65,215.82Z"/><path class="cls-4" d="M237.07,194.48s-20.93-32.24-5.5-39.09S256.09,188,256.09,188,245.83,191.85,237.07,194.48Z"/><path class="cls-4" d="M173.15,229.25s33.55-5.76,43.72-8.57c14.06-3.87,32.73-12.36,32.73-12.36,2.57,7,1,13.59-1.4,19.39C242.74,241.1,194.54,264.19,173.15,229.25Z"/><path class="cls-4" d="M176.79,224.11s-5.79,5.14-6.43,10.29"/><path class="cls-4" d="M283.36,348.14a22.89,22.89,0,0,1,3.5,5"/><path class="cls-4" d="M282.31,363.13a32.54,32.54,0,0,1,2.1-4.17,24.62,24.62,0,0,1,12-10.66c3.32-1.25,9.72-2.42,14.77-.62"/><path class="cls-5" d="M200.45,276.33c12.18,7.5,21.17,21.57,28.86,33.63,8.56,13.44,16.44,26.44,25,39.87l22.29-12.78a358,358,0,0,0-49.46-68.85Z"/><path class="cls-5" d="M177.61,313.61c27.39-.62,44.56-11.07,53-19.27,6.85-6.64,10.08-10.6,7.38-29.29L261.68,258c.1,2.53,3.66,23.84-7.26,42.85,0,0-13.29,21.37-54.92,34.29-9.41,2.91-12.34,3.35-19.88,3.64Z"/><path class="cls-4" d="M166.19,314.61c-10.87.82-23.39,1.29-28.85,5.6-4.37,3.44-4.36,5.33-4.67,10.88-1,17.28,3,35.6,8.32,41.87,5.14,6,19.5,9.8,26.39,2.84,1.84-1.86,6.74-7.83,5.47-15.34-1.45-8.52-6.66-16.78-20.06-16.18"/><path class="cls-5" d="M174.48,213.1l-4.11-16.67a1.78,1.78,0,0,0-.59-1.12,1.89,1.89,0,0,0-1.41-.11l-7,1.27c-.41-.74,5.46-6.31,6.63-9.09a27.23,27.23,0,0,0-11.52-11.8c-6.15,3.2-5.68,13.92-4.86,18.28,1.34,7.13,6.57,15.54,10,22C162,216.38,171.18,214.73,174.48,213.1Z"/><path class="cls-5" d="M240.62,170a2.93,2.93,0,0,1,.51,1.25,3.29,3.29,0,0,1-.06.77,13.49,13.49,0,0,1-3.87,7.46c1.12.66,6.62-.61,6.62-.61a33.8,33.8,0,0,1,3.39,10.46,3.77,3.77,0,0,1-.09,2.06,2.77,2.77,0,0,1-1.7,1.3c-1.32.53-2.7-.59-4.21,1.11-.51.57-.88.4-2,.72-.73.22-1.12-1.15-1.5-1.93q-3.79-7.89-7.19-16.05a49.81,49.81,0,0,1-2.21-6.14c-1-3.79-2.65-13.07,2.59-13.15C235.1,157.18,238.54,166.51,240.62,170Z"/><path class="cls-4" d="M256.32,349.83c10.58-7.17,15.26-9.3,24.89-14.27,2.21-1.14,9.25,6.7,5.14,9-9.18,5.22-26.64,18-29.06,18.31-2.05.3-3.26-.85-4.59-2.44C248.09,354.92,250.6,353.71,256.32,349.83Z"/><path class="cls-4" d="M184.15,311.42a19.51,19.51,0,0,0-1.7-2.52c-1.87-2.23-6-4.76-8.8-4-2.21.62-3.73.91-5.14,2.71-4,5.13-1.71,23.48-1.14,26.23a80.71,80.71,0,0,0,2.79,10"/><path class="cls-5" d="M182,339.52c.17,5.6-2.8,1.63-3.46-.77-2-7.21-2.47-16.56-2-24.61.2-3.63,2.94-1.54,3.32-.6Z"/><path class="cls-4" d="M310.42,104c.35,1.73,3.54,3.81,5.43-.06,1.26-2.59,1.53-5.84-.34-8a6.1,6.1,0,0,0-7.79-1.16,8.43,8.43,0,0,0-3,4.75,19.13,19.13,0,0,0-.43,8.38c.47,2.93,1.23,13.49,15.58,13.92"/><path class="cls-4" d="M323.53,85.94A8,8,0,0,0,318,86a5.6,5.6,0,0,0-3.39,4.46c-.24,2.58,1.57,4.81,2.13,7.33.44,2,.06,4.16.12,6.25s.78,4.4,2.58,5.23c2.2,1,4.81-.81,5.94-3.09a19.16,19.16,0,0,0,1.47-5.76,25.78,25.78,0,0,0,.36-6.5C326.83,89.57,326.48,86.89,323.53,85.94Z"/><path class="cls-4" d="M346.09,94.54c2.29-5.82.28-22.74-4-25.07-5-2.71-6.79,3.68-6.7,5.48q.31,6.66,1.25,13.27a40.78,40.78,0,0,1,.29,5.71"/><path class="cls-4" d="M342.88,103.26a9.27,9.27,0,0,1-7.81-1.05c-1.35-1-1.45-2.68-1.2-4.38a4.3,4.3,0,0,1,2.7-3.26c1.93-1,5.29-.82,8-.06s3.81,2.47,4.9,4.15c1.94,3,2.35,8,1.4,12a18.33,18.33,0,0,1-1,3.27c-.6,1.32-2.41,7.32-7.83,7.65"/><path class="cls-4" d="M336.57,87.49c-.38-2.4-2.78-4.15-5.32-4.56a4.31,4.31,0,0,0-1.56,0,4.65,4.65,0,0,0-4,4.49"/><path class="cls-4" d="M326.5,102.55c-.09,1.69.79,7.57,4.66,7.57s5.18-5.17,4.61-7.42"/><path class="cls-4" d="M311.17,120.57a6.78,6.78,0,0,0-3.69,6.76,3,3,0,0,0,.54,1.57,2.77,2.77,0,0,0,1,.68c5.08,2.29,10.87,1.28,16.39,1.52,3.95.18,7.84,1,11.8,1a10.36,10.36,0,0,0,4.39-.79,5.83,5.83,0,0,0,3.15-3.52c.73-2.42-.7-5.29-2.85-5.7"/><path class="cls-4" d="M173.17,174.15a93.52,93.52,0,0,1-29.66-7.28"/><path class="cls-4" d="M215.85,163.48a29.39,29.39,0,0,0,4.13-2.33c1.6-1.08,3.08-2.31,4.56-3.54l10.34-8.6a40.55,40.55,0,0,0,4.71-4.36"/><path class="cls-5" d="M336.3,132.61c.81,4.46-5.4,15-8.3,18.57-4.28,5.3-15.22,15.81-29.18,21,0,0-6-16.56-5.95-16.57a9.35,9.35,0,0,0,1.84-.57c4.33-1.7,14.08-6.78,18.19-10.6,5.91-5.5,7.55-8.65,8.12-12.75C321.05,131.47,336.3,132.61,336.3,132.61Z"/><circle class="cls-6" cx="329.62" cy="34.75" r="32.74"/><line class="cls-4" x1="323.95" y1="2.5" x2="335.25" y2="66.55"/><path class="cls-4" d="M303.76,17a45.78,45.78,0,0,1,17.15,35c0,4.33-.64,8.86-3.21,12.35"/><path class="cls-4" d="M347.38,9.34c-3.25,5.1-3.94,9.83-4.38,15.15s.34,13,2.43,17.91A28.2,28.2,0,0,0,355,53.65"/><path class="cls-4" d="M300.18,37a431.82,431.82,0,0,0,67.13-8.32"/><path class="cls-4" d="M363.77,34a8.66,8.66,0,0,1,7.29,2c1.87,1.82,2.34,5.12.59,7.06a7.59,7.59,0,0,1-2.63,1.7c-5.83,2.62-12.22,3.72-18.55,4.64a411.2,411.2,0,0,1-41.32,3.86"/><path class="cls-4" d="M297.19,34.11a27.55,27.55,0,0,0-9.49,2.73,5.19,5.19,0,0,0-2.82,2.56,3.86,3.86,0,0,0,1.73,4.26,10.65,10.65,0,0,0,4.71,1.41,143.25,143.25,0,0,0,47.41-1.67"/><path class="cls-4" d="M359.82,19.43c6.47-1.34,9.5-.82,10.74,0,3.05,2-13.48,4.68-15.59,5.07"/><path class="cls-4" d="M345.45,25.45A364,364,0,0,1,291,29.08"/><path class="cls-4" d="M302.24,54.39c-1.53.75-3.27,1.81-3.39,3.52-.19,2.59,3.25,3.65,5.85,3.73,10.63.31,21.23-1,31.78-2.26,8-1,16.07-2,23.68-4.62a3.56,3.56,0,0,0,1.36-.72,1.82,1.82,0,1,0-2.72-2.4"/><path class="cls-4" d="M241.94,211.74a9.68,9.68,0,0,1,1.69,8.94c-.28,1-18.46,9.39-45.78,14.85-11.31,2.26-14.55,2.13-18.59.61"/><path class="cls-4" d="M197.85,246.9c2.4-2.7,6.12-3.74,9.64-4.53,2.13-.48,4.48-.31,6.4-1.35,11.9-6.45,15.72-2.28,15.54,1"/><path class="cls-6" d="M221.3,192.5a2.37,2.37,0,0,1,2.06.33,2.44,2.44,0,0,1,.52,1.14l1.93,7.76a2,2,0,0,1,0,1.25,2,2,0,0,1-.78.75c-7.4,4.71-16.19,6.61-24.77,8.44-1.29.27-2.83.48-3.76-.46-1.29-1.29-2.82-6.86-2.4-8.7.62-2.8,3.75-3.51,6.16-4.53A88.33,88.33,0,0,1,221.3,192.5Z"/><polygon class="cls-5" points="97.08 177.81 115.27 165.37 278.98 119.85 282.6 130.56 117.74 175.35 99.24 186.17 97.08 177.81"/><path class="cls-7" d="M99.68,185.1A1.86,1.86,0,0,1,99,185a2,2,0,0,1-1.18-1.27l-1.16-3.77a2,2,0,0,1,.86-2.29l18.18-11.21a2,2,0,0,1,.5-.22l164-46.43a2,2,0,0,1,2.43,1.26l1.67,4.77a2,2,0,0,1-1.35,2.59l-164.18,46-18,10.46A2,2,0,0,1,99.68,185.1Z"/><path class="cls-2" d="M280.64,121.69l1.67,4.77L117.89,172.52,99.68,183.1l-1.16-3.77,18.18-11.21,163.94-46.43m0-4a4.15,4.15,0,0,0-1.09.15L115.61,164.27a4,4,0,0,0-1,.45L96.42,175.93a4,4,0,0,0-1.72,4.58l1.16,3.77a4,4,0,0,0,2.36,2.55,4.1,4.1,0,0,0,1.46.27,4,4,0,0,0,2-.54l17.77-10.33,163.93-45.92a4,4,0,0,0,2.7-5.17l-1.67-4.77a4,4,0,0,0-3.78-2.68Z"/><path class="cls-4" d="M107,295.17a4.79,4.79,0,0,1,5.3-.18c2.77,1.65,2.43,7.15,1.32,9.43-1.67,3.41-3.67,5.16-6.17,4.91"/><path class="cls-4" d="M111,290.79c1-4.33-10-8.34-17.71-10.16-6.54-1.55-18.54-2.78-21.2.58-2,2.48,5.43,5.17,5.43,5.17-2.29.22-5.33,3-6.52,4.95a21.87,21.87,0,0,0-2.28,6.47c-1,4.35-1.93,9.36-.4,13.32a4.64,4.64,0,0,0,6.1,2.59,7.31,7.31,0,0,0,2.13-1.43c-.08,2.33,2.27,5.38,5.4,6.28,3.73,1.09,7.28-1.51,9-2.58.28,1.07.94,5.57,6.56,6.1,3.44.33,7.41-4.3,8.28-8.56.43-2.16.93-4.26,1.36-6.36a42.53,42.53,0,0,0,1-8.68,5.91,5.91,0,0,0-2-4.22c-1.2-.94-1.2-.94-4.34-1.81C101.79,292.45,110.21,294,111,290.79Z"/><path class="cls-5" d="M113,241.25c-9.43,10.55-16,24.29-16,38.15a36.38,36.38,0,0,1-9.21.23,36.47,36.47,0,0,1-6.75-1.06c.26-9,2.89-21.56,7.11-29.62a41.06,41.06,0,0,1,19.64-18.81Z"/><path class="cls-4" d="M56.3,314.7c-7-2.12-18,31.78-17.15,34.78,1.1,3.73,54,23,57.12,20.55s15.87-32.95,12.52-35.12C102.35,330.73,59.82,315.77,56.3,314.7Z"/><path class="cls-4" d="M68.82,337.77c-8.16-3.1-12.1-4.57-16-7.39"/><path class="cls-4" d="M70.53,337a7.16,7.16,0,0,0-.75.95c-1.21,1.81-1.39,3.62.15,5.15,1.24,1.23,7.51,4.15,8.83,1.25,1.7-3.74,2.35-5.39-3.27-7.81C71.84,335,70.53,337,70.53,337Z"/><path class="cls-4" d="M79.86,342.33a50.53,50.53,0,0,0,18.27,5.1"/><path class="cls-4" d="M99.47,324.26c.27,2.18.49,4.14-.35,6.17l4.48,1.73c2.63-2.57,2.61-9.18.91-12Z"/><path class="cls-6" d="M75.06,398.47c-1.87,1.48-5.38,1.73-6.82,2.33a24.7,24.7,0,0,1,6.59,2.66c1,.54,2.21,6.29,2.22,7.08.08-.94,1.4-5.72,3-7.09,1.44-1.21,4.45-1.44,7.63-2.42-4.14-.91-6.67-1.16-7.63-2-1.55-1.35-2.89-6.27-2.89-6.27S76.68,397.19,75.06,398.47Z"/><path class="cls-6" d="M348.09,398.54c-1.84-1.51-2.84-4.88-3.74-6.16a24.4,24.4,0,0,1-1.17,7c-.31,1.14-5.67,3.51-6.45,3.69.94-.12,5.9.14,7.59,1.45,1.49,1.15,2.36,4,4,6.94,0-4.24-.3-6.77.32-7.89,1-1.8,5.49-4.17,5.49-4.17S349.69,399.85,348.09,398.54Z"/><path class="cls-4" d="M417.87,254.12s.09,74.94-47.25,118.23"/><path class="cls-4" d="M370.62,99.92s33.54,31.74,43,77.89"/><path class="cls-4" d="M73.85,299.93a2.05,2.05,0,0,0,1.34.61"/><path class="cls-4" d="M84.56,304.65a2.39,2.39,0,0,0,2.31.43"/><path class="cls-4" d="M96.08,307.19c.14.33,1.29.53,1.89.41"/><path class="cls-4" d="M67.64,312.43a17.1,17.1,0,0,0-1.49,2.11,5.12,5.12,0,0,0-.69,2.46l-5.95-1.6c1-4,5.13-7.94,7.15-8Z"/><path class="cls-4" d="M84.56,288a23.22,23.22,0,0,1,10,2.48"/><path class="cls-4" d="M170.08,343.71a24.94,24.94,0,0,0,4.16,6.79c1.85,1.92,10,5.54,12.21-2.66.39-1.46.67-7,.2-8.32"/><path class="cls-4" d="M162.58,345.12a54.4,54.4,0,0,1,6.38-2.36"/><path class="cls-4" d="M140.49,317.56c-3.31-2.41-10-.93-13,2.65-2.83,3.31-2.84,9.56-2.24,13.87l3.25,23.58c.61,4.39,1.23,8.84,2.88,12.95s4.46,7.94,8.44,9.91c5,2.48,12.11,1.87,17.52-.22"/><path class="cls-4" d="M327.07,356.25c0-8.57-6-9.47-8-9.54-4.69-.16-10.77,3.84-14.89,6.08a72.61,72.61,0,0,0-18.68,14.56c-2.76,3-8.25,8-10.78,11.18-3.64,4.63-7.63,9.16-2.25,13.1,0,0,2.09,1.53,7.07,1.52,6.12,0,11.34-1.74,17-4.06a60.11,60.11,0,0,0,9.25-5.13c4.6-2.92,9.23-5.86,13.12-9.66s7-8.56,8-13.92c.52-3,0-6.65-2.6-8.18-1.86-1.08-4.21-.74-6.28-.17-6.39,1.78-9.07,3.27-14.56,7a124.22,124.22,0,0,0-11.29,8.92c-7.26,6.62-13.06,15-20.13,21.85-.93-2.2-1.26-4.14-2.19-6.34l-2.94-6.94a77.17,77.17,0,0,0-6.74-13.37"/><path class="cls-4" d="M308.79,357.42a50.56,50.56,0,0,1,5.75-.53l.06,2.95a9,9,0,0,1,3.64-1.32.55.55,0,0,1,.47.1.54.54,0,0,1,.1.39l-.08,4.69a9.63,9.63,0,0,1,3.69-1.87c.4,1.27.84,2.54,1.32,3.78"/><path class="cls-4" d="M301.38,361.86l6.7.11a15.82,15.82,0,0,1-.95,5.58l6.07-1.48c.12,1.3.2,2.6.23,3.91l2.12-1a.57.57,0,0,1,.49-.06.55.55,0,0,1,.21.3l1.8,4.38"/><path class="cls-4" d="M293.35,368.89c2.14,0,4.27,0,6.41,0,.37.41.21,1.06,0,1.58l-1.21,3.5,5.93-.31a15.77,15.77,0,0,1-2.32,4,21.62,21.62,0,0,1,6.5-.7,6.08,6.08,0,0,1-.55,3.2"/><path class="cls-4" d="M285.76,376a15.13,15.13,0,0,0,4.68.6,8.61,8.61,0,0,1-1.9,4.06l5.48,0-.88,3.2,2.87-1.43a7.75,7.75,0,0,1-.17,4.69"/><path class="cls-4" d="M278.37,384.64a7.93,7.93,0,0,0,4.56.19,37.92,37.92,0,0,0-1.61,4.23l5.5,0a9.06,9.06,0,0,1-1.31,2.33"/><path class="cls-2" d="M3,259a179.55,179.55,0,0,1,23.59-19.47c.35,3.88.59,5.83,1.16,9.75A165.07,165.07,0,0,0,7.64,266.76c-.27-1.21-.4-1.81-.65-3a192.86,192.86,0,0,0,25.61,8.32c1.11,4,1.73,5.94,3.08,9.9a209.58,209.58,0,0,1-29.74-9.09C4.55,267.28,4,264.5,3,259Zm24.9,14.72-5.57,1.56a161.53,161.53,0,0,1-5.24-24.4l5.73-.82A157.33,157.33,0,0,0,27.87,273.67Z"/><path class="cls-2" d="M1,201.63l6,.67A162.18,162.18,0,0,0,6,228.83c-1.43-1.89-2.13-2.84-3.51-4.78l23.38,0c0,3.59.06,5.39.26,9l-26,1.28A300.42,300.42,0,0,1,1,201.63Zm9.54,27.42a158.28,158.28,0,0,1,1-25.37l6,.64a153.12,153.12,0,0,0-.92,24.58Z"/><path class="cls-2" d="M1.79,195.31A201.12,201.12,0,0,1,10.48,159l6.05,2a194.72,194.72,0,0,0-8.42,35.23Zm5.5-12.94c.83-3.85,1.28-5.76,2.29-9.55l22.12,5.81c-.9,3.36-1.31,5.06-2,8.48Z"/><path class="cls-2" d="M29.26,146.66c3.47,2.48,5.21,3.7,8.72,6.1-1.76.78-2.63,1.18-4.39,2a155,155,0,0,1,10.76-21.95l5.06,2.88a165.53,165.53,0,0,0-12.29,26c-4.54-2.7-6.79-4.08-11.28-6.9-5.22-.93-7.84-1.37-13.09-2.17a305.53,305.53,0,0,1,14-29.58l5.06,2.88a167.46,167.46,0,0,0-11.48,23.45c-.62-1.92-.92-2.89-1.49-4.84C23,145.35,25.09,145.77,29.26,146.66Zm5.86-17.38,4.54,2.54a157.67,157.67,0,0,0-10.44,21.57l-4.83-1.94A163,163,0,0,1,35.12,129.28Z"/><path class="cls-2" d="M44.68,115.74c2.73-4,4.16-6,7.13-9.81a6.65,6.65,0,0,0,1.53-3.22,2.48,2.48,0,0,0-.94-2.36,2.45,2.45,0,0,0-2.53-.42A6.68,6.68,0,0,0,47,102.25c-3.39,4.37-5,6.62-8.1,11.21-.19-2.17-.27-3.27-.4-5.47l19.75,13.78c-2,2.78-2.9,4.2-4.73,7.07L31.57,115A173.26,173.26,0,0,1,43.66,97.91a19.19,19.19,0,0,1,5.26-4.79,10.59,10.59,0,0,1,5.23-1.62,6.32,6.32,0,0,1,4.37,1.68,6.55,6.55,0,0,1,2.17,4.07,10.77,10.77,0,0,1-.64,5.21,20.6,20.6,0,0,1-3.3,5.7c-3.22,4.1-4.77,6.21-7.71,10.53Zm4.86-2.65c2.38-3.32,3.62-5,6.18-8.14a149.55,149.55,0,0,1,16.66-.81c-2.65,2.92-3.93,4.42-6.42,7.47A150.1,150.1,0,0,0,49.54,113.09Z"/><path class="cls-2" d="M115.46,65.61c-.94.54-1.42.81-2.35,1.37-1.94-9.52-2.72-14.36-3.89-24.14,3.66-2,5.51-2.89,9.27-4.66A234,234,0,0,0,121.05,66c-3.89,2.09-5.8,3.19-9.54,5.51a221.36,221.36,0,0,0-20-13.42c1.3-.89,1.95-1.33,3.26-2.2a220.23,220.23,0,0,0,4.8,23.69c-3.52,2.59-5.24,3.94-8.6,6.73A238,238,0,0,0,66.31,73.39c3-2.8,4.59-4.17,7.77-6.82,8.56,4.8,12.72,7.35,20.75,12.75-.85.64-1.28,1-2.13,1.62a224.52,224.52,0,0,1-5.92-24.18c3.36-2.4,5.07-3.55,8.55-5.78A223.71,223.71,0,0,1,115.46,65.61Z"/><path class="cls-2" d="M150.64,54a30.12,30.12,0,0,1-9.76,1.66,16.54,16.54,0,0,1-7.9-1.92,11.47,11.47,0,0,1-5-5.57,10.55,10.55,0,0,1-.5-7.53,15.54,15.54,0,0,1,5-7.16,31.77,31.77,0,0,1,21.19-6.83,15.94,15.94,0,0,1,8.31,2.88,10.36,10.36,0,0,1,4,6.41A11.3,11.3,0,0,1,165,43.4a17.3,17.3,0,0,1-5.41,6.2A30.68,30.68,0,0,1,150.64,54Zm-2-6.11a16.57,16.57,0,0,0,5-2.43,8.35,8.35,0,0,0,2.79-3.33,6.05,6.05,0,0,0,.26-4,5.8,5.8,0,0,0-2.23-3.36,8,8,0,0,0-4.29-1.36,16.07,16.07,0,0,0-5.85.89,15.83,15.83,0,0,0-5.21,2.68,8.08,8.08,0,0,0-2.7,3.61,5.75,5.75,0,0,0,.13,4,6,6,0,0,0,2.55,3.11,8.37,8.37,0,0,0,4.19,1.09A16.57,16.57,0,0,0,148.68,47.87Z"/><path class="cls-2" d="M180.37,31.86c5-.63,7.55-.86,12.66-1.16a7.37,7.37,0,0,0,3.62-1,2.5,2.5,0,0,0,1.25-2.27,2.48,2.48,0,0,0-1.44-2.19,7.31,7.31,0,0,0-3.8-.59c-5.83.33-8.72.61-14.43,1.37,1.57-1.59,2.38-2.38,4-3.95l2.7,24c-3.53.38-5.28.62-8.76,1.19L172,21.57a164.36,164.36,0,0,1,21.76-2.3,21.39,21.39,0,0,1,7.5.81,11.51,11.51,0,0,1,5,2.91,6.05,6.05,0,0,1,1.71,4.41,6.28,6.28,0,0,1-1.76,4.31,11.59,11.59,0,0,1-4.65,2.92,23.23,23.23,0,0,1-6.85,1.26c-5.51.28-8.24.52-13.64,1.2C180.78,35,180.64,34,180.37,31.86Zm5.42,1.88c4.26-.42,6.4-.57,10.73-.75a158.2,158.2,0,0,1,12.31,12.09c-4.23-.11-6.33-.11-10.51,0A155.35,155.35,0,0,0,185.79,33.74Z"/><path class="cls-2" d="M216.27,45.43c.65-10.38,1-15.57,1.62-25.95,4.19.29,6.3.49,10.53,1-.93,8.06-1.39,12.09-2.31,20.14-1-.71-1.43-1.07-2.39-1.77a151.81,151.81,0,0,1,23.81-15.16c4.55,1,6.84,1.53,11.41,2.78A162.84,162.84,0,0,0,224.61,46.2C221.26,45.82,219.59,45.66,216.27,45.43ZM234.18,35c3.19-1.26,4.83-1.86,8.17-3a170.7,170.7,0,0,1,10.22,19.63c-4.29-1.18-6.43-1.7-10.69-2.61C239.05,43.37,237.51,40.55,234.18,35Z"/><path class="cls-2" d="M121.92,427.81a4.31,4.31,0,0,1-1.86,2.72,7.21,7.21,0,0,1-3.73,1,21,21,0,0,1-10.49-2.84,8.72,8.72,0,0,1-3-3,4.4,4.4,0,0,1-.53-3.29c2.34.68,3.52,1,5.86,1.65a2.21,2.21,0,0,0,.5,1.27,4,4,0,0,0,1.37,1.09,10.13,10.13,0,0,0,2.25.84,8.51,8.51,0,0,0,2.72.36c.66-.06,1-.31,1.15-.74s-.08-.65-.49-.94a11.11,11.11,0,0,0-2.23-1c-1.13-.38-1.69-.57-2.81-1a16.06,16.06,0,0,1-4.31-2.06,5.19,5.19,0,0,1-2-2.31,4,4,0,0,1-.07-2.48,4.12,4.12,0,0,1,1.95-2.54,7.5,7.5,0,0,1,3.61-.83,18.21,18.21,0,0,1,4.83.7,16.31,16.31,0,0,1,4.57,1.89,9.05,9.05,0,0,1,2.88,2.69,4.79,4.79,0,0,1,.78,3.17c-2.33-.56-3.5-.85-5.82-1.44a2,2,0,0,0-.38-1.08,3.85,3.85,0,0,0-1.14-1,7.67,7.67,0,0,0-2.08-.83,6.9,6.9,0,0,0-2.41-.31c-.59.07-.94.3-1,.7a.81.81,0,0,0,.29.85A5,5,0,0,0,112,420c1.46.51,2.2.76,3.66,1.25a16.4,16.4,0,0,1,4.21,1.87,4.78,4.78,0,0,1,1.9,2.15A4.19,4.19,0,0,1,121.92,427.81Z"/><path class="cls-2" d="M128.86,418.46c2.28.52,3.43.76,5.72,1.24l-.93,4.45-.39.6c-.37,1.73-.55,2.6-.92,4.34v1.33c-.78,3.7-1.17,5.54-1.94,9.24-2.41-.5-3.61-.76-6-1.3Zm2.24,8.61a9,9,0,0,1,2.47-4,8.67,8.67,0,0,1,3.55-2.24,9,9,0,0,1,8.2,1.58,7.51,7.51,0,0,1,2.28,3.39,9,9,0,0,1,.26,4.51,8.84,8.84,0,0,1-1.76,4.13,7.21,7.21,0,0,1-3.38,2.38,9.38,9.38,0,0,1-8.51-1.63,8.38,8.38,0,0,1-2.44-3.48A9.22,9.22,0,0,1,131.1,427.07ZM142,429.24a4.22,4.22,0,0,0-.11-2.16,3.84,3.84,0,0,0-1.12-1.68,4.08,4.08,0,0,0-1.93-.91,5.11,5.11,0,0,0-2.3.08,6,6,0,0,0-2.13,1,2.37,2.37,0,0,0-.85,4.09,5.88,5.88,0,0,0,1.58,1.78,5.15,5.15,0,0,0,2.15.95,4.19,4.19,0,0,0,2.15-.1,3.61,3.61,0,0,0,1.68-1.14A4.11,4.11,0,0,0,142,429.24Z"/><path class="cls-2" d="M161.2,440.75a13.85,13.85,0,0,1-5.48-1.82,8.53,8.53,0,0,1-3.29-3.47,7.32,7.32,0,0,1-.64-4.52,7.55,7.55,0,0,1,2-4.14,8.8,8.8,0,0,1,4.06-2.35,15.13,15.13,0,0,1,10.83,1.44,8.93,8.93,0,0,1,3.32,3.34,7.48,7.48,0,0,1,.84,4.49A7.33,7.33,0,0,1,171,438a8.45,8.45,0,0,1-4.09,2.48A13.66,13.66,0,0,1,161.2,440.75Zm.55-4.14a5.69,5.69,0,0,0,2.55-.18,3.61,3.61,0,0,0,1.76-1.21,4.35,4.35,0,0,0,.82-2.15,4.43,4.43,0,0,0-.28-2.31,3.57,3.57,0,0,0-1.38-1.61,5.72,5.72,0,0,0-2.37-.81,5.56,5.56,0,0,0-2.51.16,3.61,3.61,0,0,0-1.77,1.19,4.85,4.85,0,0,0-.64,4.43,3.63,3.63,0,0,0,1.39,1.65A5.73,5.73,0,0,0,161.75,436.61Z"/><path class="cls-2" d="M177.47,426.26c2.35.23,3.53.33,5.88.53.2,2.28.31,3.42.52,5.71-.33,4.05-.49,6.08-.81,10.14-2.4-.19-3.6-.3-6-.53.39-4.18.59-6.27,1-10.45C177.81,429.5,177.69,428.42,177.47,426.26Zm14.45.89c-.11,1.92-.17,2.89-.29,4.81a15.76,15.76,0,0,0-1.6-.33c-.5-.08-1-.14-1.39-.17a5.71,5.71,0,0,0-2.35.32,3.85,3.85,0,0,0-1.83,1.46,5.86,5.86,0,0,0-.88,2.91c-.41-.57-.62-.85-1-1.42a19.45,19.45,0,0,1,.95-3.16A10.35,10.35,0,0,1,185,429a6,6,0,0,1,2.09-1.71,5.71,5.71,0,0,1,2.88-.48,8.45,8.45,0,0,1,1,.12C191.25,427,191.59,427.06,191.92,427.15Z"/><path class="cls-2" d="M194.55,431.74c0-1,.08-1.48.13-2.46l3.36-1.14c1.09-1.83,1.62-2.74,2.68-4.58,1.3.05,2,.08,3.26.11l-.13,4.27c2.72.08,4.08.11,6.81.15,0,1.67,0,2.51-.06,4.18-2.75,0-4.13-.06-6.88-.15-.05,1.86-.08,2.79-.14,4.65a3.25,3.25,0,0,0,.66,2.44,3.87,3.87,0,0,0,2.64.76,10.37,10.37,0,0,0,2.18-.17,9.35,9.35,0,0,0,1.74-.52l-.05,4.27a14.43,14.43,0,0,1-2.34.52,16.35,16.35,0,0,1-3,.18,10.82,10.82,0,0,1-4.56-.94,5.49,5.49,0,0,1-2.54-2.42,7.08,7.08,0,0,1-.69-3.56c.1-2.17.15-3.26.24-5.43Z"/><path class="cls-2" d="M234.7,438.35a4.28,4.28,0,0,1-1,3.13,7.16,7.16,0,0,1-3.28,2,18.06,18.06,0,0,1-5.23.79,18.43,18.43,0,0,1-5.55-.63,8.7,8.7,0,0,1-3.7-2,4.45,4.45,0,0,1-1.4-3c2.41,0,3.62,0,6,0a2.24,2.24,0,0,0,.82,1.08,4.22,4.22,0,0,0,1.6.67,10.57,10.57,0,0,0,2.38.19,8.31,8.31,0,0,0,2.7-.41c.6-.24.9-.58.88-1s-.25-.61-.72-.77a10.39,10.39,0,0,0-2.4-.34l-2.94-.16a15.77,15.77,0,0,1-4.67-.79,5.22,5.22,0,0,1-2.48-1.68A4,4,0,0,1,215,433a4.08,4.08,0,0,1,1.16-3,7.3,7.3,0,0,1,3.21-1.79,18.22,18.22,0,0,1,4.8-.67,16.72,16.72,0,0,1,4.87.56,9.13,9.13,0,0,1,3.49,1.8,4.78,4.78,0,0,1,1.61,2.83c-2.38.11-3.57.15-5.95.23a1.9,1.9,0,0,0-.66-.94,3.68,3.68,0,0,0-1.36-.67,7.42,7.42,0,0,0-2.21-.23,6.74,6.74,0,0,0-2.39.38c-.54.23-.8.54-.8,1a.82.82,0,0,0,.51.74,5.25,5.25,0,0,0,1.89.36l3.84.19a16.47,16.47,0,0,1,4.52.64A4.84,4.84,0,0,1,233.9,436,4.23,4.23,0,0,1,234.7,438.35Z"/><path class="cls-2" d="M268.35,433.85a6.5,6.5,0,0,1-1.14,3.92,9.1,9.1,0,0,1-3.34,2.92,13.33,13.33,0,0,1-4.94,1.44,12.92,12.92,0,0,1-5.54-.51,8.59,8.59,0,0,1-3.92-2.61,7.34,7.34,0,0,1-1.65-4.23,7.51,7.51,0,0,1,.94-4.47,8.81,8.81,0,0,1,3.3-3.25,12.73,12.73,0,0,1,5.12-1.57,13.17,13.17,0,0,1,4.95.35,9.49,9.49,0,0,1,3.83,2.05,6.78,6.78,0,0,1,2.08,3.52c-2.33.3-3.5.45-5.83.72a3.41,3.41,0,0,0-1.71-2,5.62,5.62,0,0,0-5.07.26,3.44,3.44,0,0,0-1.35,1.55,4.54,4.54,0,0,0-.32,2.33,4.43,4.43,0,0,0,.75,2.19,3.5,3.5,0,0,0,1.65,1.26,5,5,0,0,0,2.33.25,5,5,0,0,0,2.78-1.11,3.33,3.33,0,0,0,1.22-2.28C264.84,434.3,266,434.16,268.35,433.85Z"/><path class="cls-2" d="M270.79,418.73c2.28-.32,3.42-.49,5.69-.85,1.33,8.43,2,12.65,3.31,21.08-2.4.37-3.6.55-6,.89Z"/><path class="cls-2" d="M292.51,437.21a8.24,8.24,0,0,1-4.14-.17,6.12,6.12,0,0,1-3-2.11,8.24,8.24,0,0,1-1.53-3.72l-1.48-8.71c2.29-.39,3.43-.59,5.72-1,.58,3.16.88,4.74,1.46,7.9a3.75,3.75,0,0,0,1.38,2.48,3.44,3.44,0,0,0,2.74.43,4.12,4.12,0,0,0,2-.88,3.34,3.34,0,0,0,1-1.63,4.81,4.81,0,0,0,0-2.24l2,.53a9.94,9.94,0,0,1-.56,4.46,7.38,7.38,0,0,1-5.63,4.68Zm6.93-1.83c-.95-2.39-1.41-3.59-2.35-6-.75-3.72-1.13-5.57-1.89-9.29,2.28-.46,3.42-.7,5.69-1.2.89,4.05,1.34,6.07,2.23,10.12.89,2,1.34,3.06,2.24,5.09C303,434.64,301.81,434.89,299.44,435.38Z"/><path class="cls-2" d="M305.15,412.28c2.25-.53,3.37-.8,5.61-1.36,1,3.92,1.48,5.88,2.46,9.81-.17.63-.25.95-.41,1.58.38,1.55.57,2.33,1,3.88l1.1,1.15,1.07,4.27c-2.36.59-3.55.88-5.92,1.44Zm7,12.14a9.13,9.13,0,0,1,.48-4.7A8.8,8.8,0,0,1,323,414,7.56,7.56,0,0,1,326.5,416a9.18,9.18,0,0,1,2.21,3.94,8.87,8.87,0,0,1,.21,4.49,7.18,7.18,0,0,1-2,3.62,9.4,9.4,0,0,1-8.4,2.26,8.47,8.47,0,0,1-3.73-2.07A9.15,9.15,0,0,1,312.16,424.42Zm10.76-2.8a4.25,4.25,0,0,0-1.05-1.9,3.78,3.78,0,0,0-1.73-1,4.14,4.14,0,0,0-2.15,0,5,5,0,0,0-2.05,1.08,6.37,6.37,0,0,0-1.47,1.86,6.68,6.68,0,0,0-.7,2.35,6.54,6.54,0,0,0,1.73,1.71,6,6,0,0,0,2.2.91,5.19,5.19,0,0,0,2.35-.09,4.16,4.16,0,0,0,1.92-1,3.63,3.63,0,0,0,1-1.75A4.21,4.21,0,0,0,322.92,421.62Z"/><path class="cls-2" d="M406.33,216.23a7.76,7.76,0,0,1-3.27-.66,5.47,5.47,0,0,1-2.27-1.85,4.81,4.81,0,0,1-.83-2.79,4.68,4.68,0,0,1,.81-2.73,5.26,5.26,0,0,1,2.19-1.83,7.39,7.39,0,0,1,3.13-.65,5.94,5.94,0,0,1,3.1.77,5.09,5.09,0,0,1,2,2.2,7.79,7.79,0,0,1,.68,3.37H403.2v-2.27h6.35l-1.16.78a2.78,2.78,0,0,0-.34-1.15,1.83,1.83,0,0,0-.74-.72,2.27,2.27,0,0,0-1.08-.24,2.52,2.52,0,0,0-1.21.27,1.9,1.9,0,0,0-.77.77,2.29,2.29,0,0,0-.27,1.12,2.69,2.69,0,0,0,.39,1.49,2.49,2.49,0,0,0,1.18.93,5.4,5.4,0,0,0,2,.32,9.13,9.13,0,0,0,2.13-.26,7.77,7.77,0,0,0,1.92-.76v2.45a8.32,8.32,0,0,1-2.36,1.07A10.53,10.53,0,0,1,406.33,216.23Z"/><path class="cls-2" d="M425.14,212.63a2.86,2.86,0,0,1-.74,2,4.36,4.36,0,0,1-2.08,1.2,12.57,12.57,0,0,1-6.48-.05,5.28,5.28,0,0,1-2.23-1.27,2.8,2.8,0,0,1-.87-1.92h4a1.09,1.09,0,0,0,.43.6,2.2,2.2,0,0,0,.86.37,6,6,0,0,0,1.29.13,4.67,4.67,0,0,0,1.42-.17c.33-.11.5-.27.5-.49s-.13-.34-.39-.44a5.54,5.54,0,0,0-1.31-.2l-1.68-.12a11.13,11.13,0,0,1-2.89-.52,3.17,3.17,0,0,1-1.54-1.06,2.57,2.57,0,0,1-.47-1.56,2.61,2.61,0,0,1,.73-1.9,4.38,4.38,0,0,1,2-1.14,11.1,11.1,0,0,1,3-.37,9.86,9.86,0,0,1,3.05.43,5.46,5.46,0,0,1,2.14,1.21,3.07,3.07,0,0,1,.94,1.82h-4a1,1,0,0,0-.37-.54,2.05,2.05,0,0,0-.74-.38,4.26,4.26,0,0,0-1.16-.13,4,4,0,0,0-1.32.16c-.29.11-.43.27-.43.48a.44.44,0,0,0,.27.41,2.64,2.64,0,0,0,1,.19l2.25.16a9.92,9.92,0,0,1,2.82.49,3,3,0,0,1,1.48,1A2.86,2.86,0,0,1,425.14,212.63Z"/><path class="cls-2" d="M425.64,208.92v-1.71l2-.9,1.73-3h2.25V206h4v2.91h-4v2.48a2.06,2.06,0,0,0,.39,1.42,2.09,2.09,0,0,0,1.53.42,5.92,5.92,0,0,0,1.26-.12,6.4,6.4,0,0,0,1-.28v2.92a9.53,9.53,0,0,1-1.4.32,10.29,10.29,0,0,1-1.79.15,6.46,6.46,0,0,1-2.79-.52,3.53,3.53,0,0,1-1.65-1.49,4.6,4.6,0,0,1-.54-2.28v-3Z"/><path class="cls-2" d="M394,226a3.78,3.78,0,0,1,.83-2.16,4.8,4.8,0,0,1,2-1.39,7.55,7.55,0,0,1,2.77-.49,6.78,6.78,0,0,1,2.57.45,4,4,0,0,1,1.71,1.22,2.88,2.88,0,0,1,.61,1.83,2.75,2.75,0,0,1-.45,1.51,5.13,5.13,0,0,1-1.39,1.35,15.35,15.35,0,0,1-2.45,1.33l-2.65,1.22-.07-.8h7.29v2.52H394.22v-2.22l4.47-2.45c.68-.37,1.2-.67,1.56-.92a2.92,2.92,0,0,0,.76-.68,1.12,1.12,0,0,0,.22-.67A1,1,0,0,0,401,225a1.26,1.26,0,0,0-.62-.43,2.87,2.87,0,0,0-1-.15,3.14,3.14,0,0,0-1.24.21,1.83,1.83,0,0,0-.72.58,1.72,1.72,0,0,0-.29.79Z"/><path class="cls-2" d="M411.77,232.8a6.83,6.83,0,0,1-3.12-.68,5,5,0,0,1-2.07-1.9,5.88,5.88,0,0,1,0-5.71,5.08,5.08,0,0,1,2.07-1.9,7.54,7.54,0,0,1,6.26,0,5.17,5.17,0,0,1,2.08,1.9,5.88,5.88,0,0,1,0,5.71,5.1,5.1,0,0,1-2.08,1.9A6.89,6.89,0,0,1,411.77,232.8Zm0-2.61a2.65,2.65,0,0,0,2-.74,3.39,3.39,0,0,0,0-4.18,2.67,2.67,0,0,0-2-.73,2.72,2.72,0,0,0-2,.73,3.36,3.36,0,0,0,0,4.18A2.74,2.74,0,0,0,411.8,230.19Z"/><path class="cls-2" d="M418.69,226a3.78,3.78,0,0,1,.83-2.16,4.8,4.8,0,0,1,2-1.39,7.55,7.55,0,0,1,2.77-.49,6.78,6.78,0,0,1,2.57.45,4,4,0,0,1,1.71,1.22,2.94,2.94,0,0,1,.61,1.83,2.75,2.75,0,0,1-.45,1.51,5.28,5.28,0,0,1-1.39,1.35,15.07,15.07,0,0,1-2.46,1.33l-2.64,1.22-.07-.8h7.29v2.52H419v-2.22l4.47-2.45A17.67,17.67,0,0,0,425,227a3,3,0,0,0,.77-.68,1.19,1.19,0,0,0,.22-.67,1,1,0,0,0-.21-.65,1.26,1.26,0,0,0-.62-.43,2.87,2.87,0,0,0-1-.15,3.14,3.14,0,0,0-1.24.21,1.7,1.7,0,0,0-.72.58,1.72,1.72,0,0,0-.29.79Z"/><path class="cls-2" d="M440.17,222.17v10.39H437v-9h.91l-5.21,5.75v-1h9.06v2.34H430.38v-2.25l5.72-6.28Z"/></g></g></svg>